<svg width="12" height="13" fill="none" xmlns="http://www.w3.org/2000/svg"><g clip-path="url(#clip0_148:104610)" fill="#000"><path d="M6 .434A4.35 4.35 0 001.654 4.78c0 2.973 3.89 7.34 4.055 7.524a.391.391 0 00.582 0c.166-.185 4.055-4.55 4.055-7.524A4.35 4.35 0 006 .434zm0 6.199c-1.5-1.5-2 0-2-1.5 0-1.965.5-1.5 1.71-2.156C7.5 3.633 8 3.168 8 5.133c-.5 1.5-.5 0-2 1.5z"/><path d="M6 2.593c-1.206 0-2.187.98-2.187 2.187 0 1.205.981 2.186 2.187 2.186s2.187-.98 2.187-2.186S7.206 2.593 6 2.593zm0 3.59c-.774 0-1.404-.63-1.404-1.403a1.405 1.405 0 012.808 0c0 .774-.63 1.403-1.404 1.403z"/></g><defs><clipPath id="clip0_148:104610"><path fill="#fff" transform="translate(0 .434)" d="M0 0h12v12H0z"/></clipPath></defs></svg>