<svg width="193" height="48" fill="none" xmlns="http://www.w3.org/2000/svg"><path fill-rule="evenodd" clip-rule="evenodd" d="M146.437 22.073h-.127l-1.069-3.576-2.011-6.595h-3.946v2.486h1.298l3.284 9.664h1.68c-.17.507-.327.959-.471 1.357a4.765 4.765 0 01-.484 1.002 1.77 1.77 0 01-.649.608c-.254.136-.577.203-.967.203-.289 0-.594-.02-.916-.063a18.538 18.538 0 01-1.019-.165c-.085.389-.157.77-.216 1.142a113 113 0 01-.191 1.141c.797.254 1.451.402 1.96.444.509.042.891.063 1.146.063.662 0 1.213-.076 1.655-.228a3.297 3.297 0 001.12-.634c.305-.271.56-.596.763-.977.204-.38.382-.79.535-1.23l2.291-6.24c.764-2.08 1.519-4.168 2.266-6.265h1.222v-2.308h-6.008v2.308h1.426l-1.451 4.337c-.188.593-.374 1.18-.561 1.763-.187.584-.373 1.171-.56 1.764zm-13.579-5.125v4.97c0 .323.029.641.089.956a1.975 1.975 0 001.144 1.465c.326.153.763.23 1.312.23a8.13 8.13 0 001.337-.127 6.458 6.458 0 001.414-.409v-2.09h-1.722c0-1.699-.005-3.376-.014-5.033-.008-1.656-.012-3.326-.012-5.008h-3.41l-3.179 4.562c-.291.408-.56.794-.808 1.16-.248.365-.47.688-.666.968-.197.28-.355.51-.475.688-.12.178-.179.277-.179.293v-.025h-.102v-7.646h-5.246v2.243h1.672v10.22h3.429l3.559-4.92a70.56 70.56 0 001.727-2.497h.13zm-19.852 4.79c-.493-.149-.896-.314-1.207-.495V15.45c.311-.23.727-.445 1.246-.643.52-.198 1.004-.297 1.454-.297.364 0 .702.046 1.013.136.312.09.584.264.818.52.234.256.416.61.545 1.064.13.454.195 1.044.195 1.77 0 .826-.078 1.494-.234 2.005-.155.512-.355.912-.597 1.201a1.877 1.877 0 01-.831.594 2.917 2.917 0 01-.96.16c-.468 0-.948-.073-1.442-.222zm-6.478 7.674h7.27v-2.346h-1.895v-3.48a6.81 6.81 0 001.844.592c.64.11 1.177.164 1.61.164 1.003 0 1.856-.168 2.557-.505a4.465 4.465 0 001.701-1.386c.433-.59.744-1.295.935-2.12.19-.823.285-1.714.285-2.673 0-.84-.087-1.63-.259-2.37a5.407 5.407 0 00-.857-1.943c-.398-.554-.931-.996-1.597-1.324-.667-.328-1.493-.492-2.48-.492-.277 0-.584.03-.922.088a8.538 8.538 0 00-1.038.253c-.355.11-.697.248-1.026.416a5.495 5.495 0 00-.908.58l-.052-.025v-1.11h-5.168v2.346h1.766v12.99h-1.766v2.345zm-6.426-12.464v4.97c0 .323.03.641.09.956a1.971 1.971 0 001.144 1.465c.325.153.762.23 1.311.23.394 0 .84-.043 1.337-.127a6.467 6.467 0 001.415-.409v-2.09h-1.723c0-1.699-.004-3.376-.013-5.033a922.101 922.101 0 01-.013-5.008h-3.41l-3.179 4.562c-.29.408-.56.794-.808 1.16-.247.365-.47.688-.666.968-.196.28-.354.51-.474.688-.12.178-.18.277-.18.293v-.025h-.102v-7.646h-5.246v2.243h1.672v10.22h3.43l3.558-4.92a69.981 69.981 0 001.728-2.497h.129zm-16.938-5.046v4.924h-4.93v-4.924h-5.215v2.234h1.627V24.34h3.588v-5.457h4.93v3.35c0 .812.19 1.405.568 1.777.378.372 1.032.558 1.962.558.396 0 .847-.046 1.355-.14a6.457 6.457 0 001.407-.418v-2.107h-1.704V11.902h-3.588zm-16.57 5.046v4.97c0 .323.029.641.09.956a1.979 1.979 0 001.144 1.465c.325.153.762.23 1.31.23.395 0 .84-.043 1.338-.127a6.462 6.462 0 001.414-.409v-2.09h-1.723c0-1.699-.004-3.376-.013-5.033a932.385 932.385 0 01-.013-5.008h-3.41l-3.178 4.562c-.291.408-.56.794-.808 1.16-.248.365-.47.688-.667.968-.196.28-.354.51-.474.688-.12.178-.18.277-.18.293v-.025h-.102v-7.646h-5.245v2.243h1.671v10.22h3.43l3.559-4.92a69.07 69.07 0 001.727-2.497h.13zm-27.875.718l-3.168 4.397-1.688.255v1.79a5.94 5.94 0 001.246.32c.485.077.883.123 1.195.14.536 0 .97-.068 1.298-.204.329-.137.623-.384.883-.741l3.661-5.344v-.767l-3.427-4.883c-.277-.41-.576-.695-.896-.857-.32-.162-.723-.243-1.208-.243a5.38 5.38 0 00-1.246.154c-.433.102-.796.23-1.09.383l.181 1.866 1.454.103 2.805 3.63zm11.305 0l2.872-3.631 1.461-.103.154-1.866a4.656 4.656 0 00-1.064-.383 5.127 5.127 0 00-1.218-.154c-.479 0-.872.081-1.18.243-.307.162-.606.447-.897.857l-3.488 4.883v.767l3.719 5.344c.256.357.547.604.872.74.324.137.76.206 1.308.206.153 0 .333-.013.538-.038.205-.026.414-.056.628-.09a5.9 5.9 0 001.218-.333v-1.79l-1.666-.255-3.257-4.397zm-8.955 6.53h6.348v-2.233h-1.41v-7.828h1.384v-2.233h-6.374v2.233h1.358v7.828H41.07v2.233zM27.442 11.902v4.924h-4.93v-4.924h-5.215v2.234h1.627V24.34h3.588v-5.457h4.93v3.35c0 .812.189 1.405.568 1.777.378.372 1.032.558 1.962.558.395 0 .847-.046 1.355-.14a6.46 6.46 0 001.407-.418v-2.107H31.03V11.902h-3.588zM10.87 21.918c0 .323.03.641.09.956.06.314.184.599.372.853.19.256.446.46.772.612.325.153.762.23 1.311.23.394 0 .84-.043 1.337-.127a6.457 6.457 0 001.415-.409v-2.09h-1.723c0-1.699-.005-3.376-.013-5.033a964.83 964.83 0 01-.013-5.008h-3.41L7.83 16.464c-.29.408-.56.794-.808 1.16-.247.365-.47.688-.666.968-.197.28-.355.51-.474.688-.12.178-.18.277-.18.293v-.025H5.6v-7.646H.354v2.243h1.672v10.22h3.43l3.558-4.92a70.41 70.41 0 001.728-2.497h.129v4.97zm153.473-3.413l-.385-.728a91.725 91.725 0 00-.448-.841c-.154-.285-.3-.544-.437-.779-.205-.368-.427-.77-.666-1.205-.24-.435-.475-.85-.706-1.243a44.7 44.7 0 01-.602-1.054c-.172-.31-.291-.523-.359-.64h-5.643v2.234h1.693v10.069h3.462v-7.433h.128l.193.377a51.79 51.79 0 00.705 1.33l.385.704a94.474 94.474 0 011.205 2.084c.188.335.355.628.5.879.145.25.235.418.269.502h2.001c.291-.603.607-1.218.949-1.845.342-.628.658-1.193.949-1.695.068-.134.154-.297.256-.49a35.046 35.046 0 00.603-1.18 9.43 9.43 0 01.269-.515h.103v4.72c.017.386.051.746.102 1.08.052.335.158.628.321.88.162.25.406.447.731.59.325.141.76.212 1.308.212.41 0 .855-.041 1.333-.125a6.069 6.069 0 001.36-.402v-2.059h-1.718V14.25h1.564v-2.235h-5.411c-.069.118-.189.331-.36.64-.171.31-.363.666-.577 1.068-.214.401-.44.82-.679 1.255-.24.436-.453.837-.641 1.206-.137.25-.283.527-.436.828l-.437.854-.358.703a4.15 4.15 0 00-.18.376h-.102a8.323 8.323 0 01-.244-.44zm-13.224 21.79c0-.748-.172-1.274-.516-1.576-.343-.302-.828-.453-1.455-.453a5.75 5.75 0 00-1.175.125c-.4.083-.779.204-1.135.362l.195.507c.688-.238 1.34-.357 1.958-.357.27 0 .498.026.686.077a.903.903 0 01.443.256c.109.12.187.28.236.48.047.201.071.45.071.75v.512l-1.696.09a4.108 4.108 0 00-.92.146c-.283.08-.527.197-.732.35-.204.153-.363.34-.476.56-.113.221-.17.476-.17.764 0 .179.027.37.078.574a1.58 1.58 0 00.829 1.019c.231.118.524.177.881.177.105 0 .229-.004.373-.012.143-.009.306-.037.488-.083.184-.047.386-.125.608-.236a3.96 3.96 0 00.711-.47l.026.012c.009.314.072.518.19.611.117.094.289.14.515.14.122 0 .274-.019.457-.056.183-.037.348-.09.496-.156l-.053-.412h-.913v-3.7zm-.692 1.231v1.702a3.41 3.41 0 01-.979.646 2.455 2.455 0 01-.939.198c-.462 0-.794-.104-.999-.313-.205-.21-.307-.514-.307-.915 0-.358.12-.646.359-.864.239-.218.598-.34 1.077-.365l1.788-.089zm-5.051 3.037c.183-.038.348-.091.496-.16v-.42h-.966v-5.615h-.692v2.61h-3.354v-2.61h-1.58v.56h.875v5.641h.692v-3.005h3.367v2.305c0 .314.061.518.183.611.122.094.296.14.522.14.122 0 .274-.019.457-.057zm-7.349-4.268c0-.748-.172-1.274-.515-1.576-.344-.302-.829-.453-1.456-.453-.382 0-.774.042-1.174.125-.4.083-.779.204-1.136.362l.196.507c.687-.238 1.34-.357 1.958-.357.269 0 .498.026.685.077a.91.91 0 01.444.256c.109.12.187.28.235.48.048.201.072.45.072.75v.512l-1.697.09a4.118 4.118 0 00-.92.146 2.22 2.22 0 00-.731.35 1.61 1.61 0 00-.477.56c-.113.221-.17.476-.17.764 0 .179.027.37.079.574a1.575 1.575 0 00.829 1.018c.23.119.524.178.881.178.104 0 .228-.004.372-.012.143-.009.306-.037.489-.083a3.1 3.1 0 00.607-.236 3.96 3.96 0 00.711-.47l.027.012c.008.314.071.518.189.611.117.094.289.14.515.14.122 0 .274-.019.458-.056.182-.037.347-.09.495-.156l-.052-.412h-.914v-3.7zm-.691 1.231v1.702a3.423 3.423 0 01-.979.646 2.46 2.46 0 01-.94.198c-.462 0-.794-.104-.998-.313-.205-.21-.307-.514-.307-.915 0-.358.119-.646.359-.864.239-.218.598-.34 1.077-.365l1.788-.089zm-6.566-1.885v4.228c.009.314.07.518.183.611.113.094.283.14.509.14.122 0 .272-.019.45-.057a2.29 2.29 0 00.49-.16v-.42h-.992v-5.055h.927v-.56h-1.632l-1.762 3.63-.653 1.387h-.013l-.678-1.375-1.867-3.642h-1.736v.56h.979v5.641h.639v-5.004h.04l.615 1.235 1.688 3.235h.641l1.622-3.324.498-1.07h.052zm-10.376 4.38h-.066l-.43-1.413-1.358-4.24h-1.201v.586h.653l1.866 5.615h.353l-.418 1.253c-.122.346-.265.58-.431.703a.961.961 0 01-.587.183c-.148 0-.313-.014-.496-.044s-.379-.066-.587-.108l-.131.53c.409.121.72.186.933.195.214.009.355.013.425.013.382 0 .685-.095.907-.286.222-.19.406-.515.555-.973l2.401-7.08h.666v-.587h-2.206v.586h.862l-1.24 3.683-.47 1.385zm-4.36-3.726c0-.748-.172-1.274-.516-1.576-.343-.302-.828-.453-1.455-.453a5.74 5.74 0 00-1.174.125c-.401.083-.78.204-1.136.362l.196.507c.687-.238 1.34-.357 1.958-.357.269 0 .497.026.685.077a.903.903 0 01.443.256c.109.12.188.28.236.48.047.201.071.45.071.75v.512l-1.697.09c-.33.017-.637.065-.92.146a2.23 2.23 0 00-.731.35c-.204.153-.363.34-.476.56-.113.221-.17.476-.17.764 0 .179.026.37.079.574.052.203.145.394.28.572.135.179.318.327.548.446.231.119.524.178.882.178.104 0 .228-.004.371-.012a2.67 2.67 0 00.49-.083 3.15 3.15 0 00.607-.236 3.96 3.96 0 00.711-.47l.026.012c.009.314.072.518.189.611.118.094.29.14.516.14.122 0 .274-.019.457-.056.182-.037.348-.09.496-.156l-.052-.412h-.914v-3.7zm-.692 1.231v1.702a3.423 3.423 0 01-.979.646 2.459 2.459 0 01-.939.198c-.462 0-.795-.104-.999-.313-.205-.21-.307-.514-.307-.915 0-.358.12-.646.359-.864.24-.218.599-.34 1.077-.365l1.788-.089zm-7.779-1.4c.27 0 .531.029.783.088.253.06.475.162.666.306.191.144.344.333.457.567.113.233.17.524.17.872 0 .323-.051.61-.15.86-.101.25-.235.462-.405.636-.17.174-.368.306-.594.395-.226.089-.47.133-.731.133h-2.376v-3.858h2.18zm-3.72-4.241v.586h.797v7.513h-.797v.585h3.936c.366 0 .708-.057 1.027-.172a2.31 2.31 0 00.824-.503 2.38 2.38 0 00.549-.815c.136-.322.204-.695.204-1.12 0-.306-.047-.603-.138-.892a1.953 1.953 0 00-.464-.77 2.431 2.431 0 00-.851-.547c-.349-.14-.786-.21-1.308-.21h-2.239v-3.07h3.485v1.134h.64v-1.719h-5.665zm-4.797 7.876a.549.549 0 00-.397-.16.55.55 0 00-.399.16.532.532 0 00.007.77.56.56 0 00.404.165.524.524 0 00.385-.165.541.541 0 00.164-.395.507.507 0 00-.164-.375zm-2.812-3.483a6.5 6.5 0 01-.15 1.399c-.1.456-.273.86-.516 1.214a2.72 2.72 0 01-.972.856c-.405.217-.912.325-1.521.325a5.79 5.79 0 01-.437-.019 9.505 9.505 0 01-.542-.057 7.093 7.093 0 01-.58-.102 5.7 5.7 0 01-.569-.152l-.17.555c.131.05.29.097.477.143a8.11 8.11 0 001.86.218c.688 0 1.277-.114 1.769-.344a3.2 3.2 0 001.204-.948c.311-.403.538-.88.68-1.432.14-.552.21-1.151.21-1.796 0-.518-.043-1.04-.13-1.566a3.872 3.872 0 00-.514-1.414 2.94 2.94 0 00-1.081-1.018c-.465-.263-1.079-.395-1.843-.395a7.42 7.42 0 00-1.36.115 6.215 6.215 0 00-.997.254v1.834h.64v-1.363a6.857 6.857 0 01.806-.159 8.81 8.81 0 01.482-.05c.164-.013.316-.02.455-.02.486 0 .905.08 1.256.242.352.162.64.388.866.681.225.293.393.646.5 1.057.11.412.168.873.177 1.382l-3.668-.077v.688l3.668-.051zM89.53 43.76a.548.548 0 00-.398-.16.549.549 0 00-.398.16.507.507 0 00-.163.375c0 .153.057.285.17.395a.56.56 0 00.404.165.523.523 0 00.385-.165.543.543 0 00.163-.395.509.509 0 00-.163-.375zm-2.056.808v-.586h-.822v-7.525h.822v-.586H85.1v.586h.81v3.196h-4.504v-3.196h.822v-.586h-2.375v.586h.81v7.526h-.81v.585h2.376v-.586h-.823V40.29h4.503v3.693H85.1v.585h2.376zm-12.393-.808a.548.548 0 00-.398-.16.549.549 0 00-.398.16.532.532 0 00.006.77.56.56 0 00.405.165.524.524 0 00.385-.165.543.543 0 00.163-.395.509.509 0 00-.163-.375zm-3.648-4.12v4.228c.009.314.07.518.183.611.113.094.283.14.51.14.12 0 .27-.019.45-.057.178-.038.34-.091.489-.16v-.42h-.992v-5.055H73v-.56h-1.632l-1.762 3.63-.653 1.387h-.013l-.679-1.375-1.866-3.642H64.66v.56h.98v5.641h.638v-5.004h.04l.615 1.235 1.688 3.235h.64l1.624-3.324.497-1.07h.052zm-8.993-.165v4.393c.008.314.072.518.19.611.117.094.288.14.515.14.121 0 .274-.019.457-.057a2.34 2.34 0 00.496-.16v-.42h-.966v-5.615h-.679l-2.613 3.998-.663 1.032h-.052v-5.03H57.48v.56h.953v5.641h.64l2.558-3.896.77-1.197h.04zm-13.418-3.604h-2.31v.586h.705l2.362 6.049h.34l-.235.63c-.13.346-.277.58-.438.702a.933.933 0 01-.58.183c-.148 0-.314-.015-.497-.045-.182-.03-.378-.065-.587-.108l-.13.53c.409.122.72.187.933.195.213.01.355.013.424.013.383 0 .683-.097.9-.293.218-.195.414-.517.588-.967l2.572-6.889h.678v-.586h-2.271v.586h.875l-1.175 3.158-.849 2.381h-.052l-.887-2.394-1.214-3.145h.848v-.586zm-2.571 0h-6.37v1.847h.64v-1.26h2.193v7.524h-.94v.586h2.65v-.586h-.966v-7.525h2.153v1.26h.653l-.013-1.846zm-9.868 8.111h-1.266V36.47H39v1.133h.64v-1.719h-5.874v.586h.81v7.513h-.862v.585h2.871v-.586zm-8.804-1.07l-.732-1.629-2.457-5.412h-1.646v.586h.796v7.526h-.796v.585h2.362v-.586h-.848l-.026-6.799h.026l.6 1.35 2.376 5.182h.718l2.31-5.08.64-1.452h.025v6.8h-.835v.585h2.389v-.586h-.81v-7.525h.81v-.586h-1.647l-2.43 5.386-.746 1.656h-.079z" fill="#000"/><path d="M176.474 13.956c0-1.565.36-3.018 1.081-4.358a8.143 8.143 0 013.01-3.161 7.918 7.918 0 014.16-1.162c1.487 0 2.87.387 4.149 1.162a8.07 8.07 0 012.998 3.16 8.986 8.986 0 011.092 4.359 9.105 9.105 0 01-1.046 4.288 8.307 8.307 0 01-2.975 3.219 7.752 7.752 0 01-4.218 1.209 7.851 7.851 0 01-4.219-1.197 8.342 8.342 0 01-2.975-3.208 9.08 9.08 0 01-1.057-4.311zm1.336 0c0 1.332.31 2.568.93 3.707.62 1.131 1.46 2.018 2.522 2.661a6.6 6.6 0 003.463.965 6.567 6.567 0 003.475-.977 6.95 6.95 0 002.51-2.672c.612-1.124.918-2.352.918-3.684 0-1.325-.306-2.545-.918-3.66a6.78 6.78 0 00-2.51-2.65 6.566 6.566 0 00-3.475-.977 6.6 6.6 0 00-3.463.965c-1.069.635-1.914 1.518-2.534 2.65a7.596 7.596 0 00-.918 3.672zm5.207.871v3.928h-1.639V8.89h3.207c1.186 0 2.104.256 2.755.767.658.503.987 1.24.987 2.208 0 .953-.495 1.681-1.487 2.185.945.387 1.422 1.177 1.429 2.37v.71c0 .665.066 1.146.198 1.44v.186h-1.685c-.109-.279-.163-.774-.163-1.487 0-.72-.012-1.147-.035-1.279-.124-.743-.631-1.13-1.522-1.162h-2.045zm0-1.487h1.812c.558-.016 1.008-.151 1.348-.407.341-.256.512-.593.512-1.011 0-.566-.151-.965-.453-1.197-.303-.24-.841-.36-1.616-.36h-1.603v2.975z" fill="#000"/></svg>