<svg width="219" height="45" fill="none" xmlns="http://www.w3.org/2000/svg"><path fill-rule="evenodd" clip-rule="evenodd" d="M159.359 20.073h-.08l-.666-2.268-1.255-4.181h-2.461V15.2h.81l2.048 6.127h1.048c-.106.322-.204.608-.293.86a3.137 3.137 0 01-.302.636 1.12 1.12 0 01-.405.386 1.26 1.26 0 01-.603.128c-.181 0-.371-.013-.572-.04a11.328 11.328 0 01-.635-.104 12.98 12.98 0 00-.135.723 58.12 58.12 0 01-.119.724c.497.16.905.255 1.222.282.318.026.556.04.715.04.413 0 .757-.048 1.032-.145a2.03 2.03 0 00.699-.402 2.22 2.22 0 00.476-.62c.127-.24.238-.5.333-.78l1.429-3.956c.477-1.318.948-2.642 1.414-3.972h.762v-1.463h-3.748v1.463h.89l-.905 2.75c-.117.376-.233.748-.35 1.118-.117.37-.233.742-.349 1.118zm-8.47-3.25v3.151c0 .205.019.407.056.606a1.243 1.243 0 00.714.929c.203.098.476.146.818.146.246 0 .523-.027.834-.08.31-.055.604-.14.882-.26V19.99h-1.075c0-1.077-.002-2.14-.008-3.191a666.69 666.69 0 01-.008-3.175h-2.126l-1.983 2.892c-.182.259-.349.504-.504.736-.154.231-.293.436-.416.614-.122.177-.221.323-.296.436a1.155 1.155 0 00-.111.186v-.017h-.064v-4.847h-3.272v1.422h1.043v6.48h2.139l2.22-3.12a49.053 49.053 0 001.077-1.583h.08zm-12.381 3.037a3.53 3.53 0 01-.753-.314v-3.672a3.28 3.28 0 01.778-.409 2.52 2.52 0 01.906-.188c.227 0 .438.03.632.087.194.057.365.167.51.329.146.162.259.387.34.675.081.288.122.662.122 1.122 0 .524-.049.947-.146 1.271-.097.325-.221.579-.372.762a1.177 1.177 0 01-.519.376 1.795 1.795 0 01-.599.102c-.291 0-.591-.047-.899-.141zm-4.04 4.866h4.534v-1.488h-1.182v-2.206a4.21 4.21 0 001.15.375c.399.07.734.104 1.004.104.626 0 1.158-.107 1.595-.32a2.789 2.789 0 001.061-.879c.27-.373.464-.82.583-1.344a7.623 7.623 0 00.178-1.695c0-.532-.054-1.033-.162-1.503a3.462 3.462 0 00-.534-1.231 2.647 2.647 0 00-.996-.84c-.416-.208-.931-.312-1.547-.312-.173 0-.364.02-.575.056-.21.038-.426.091-.647.16-.222.07-.435.158-.64.264-.205.107-.394.23-.567.368l-.032-.016v-.704h-3.223v1.488h1.101v8.235h-1.101v1.488zm-4.008-7.903v3.151c0 .205.018.407.056.606a1.24 1.24 0 00.714.929c.203.098.475.146.818.146.245 0 .523-.027.833-.08.31-.055.604-.14.882-.26V19.99h-1.074c0-1.077-.003-2.14-.008-3.191a556.33 556.33 0 01-.008-3.175h-2.127l-1.982 2.892c-.182.259-.35.504-.504.736-.155.231-.294.436-.416.614-.122.177-.221.323-.296.436a1.216 1.216 0 00-.112.186v-.017h-.064v-4.847h-3.271v1.422h1.042v6.48h2.139l2.22-3.12a42.244 42.244 0 001.077-1.583h.081zm-10.564-3.2v3.123h-3.075v-3.122h-3.252v1.416h1.014v6.47h2.238v-3.46h3.075v2.124c0 .515.118.89.354 1.127.236.236.644.354 1.224.354.247 0 .528-.03.845-.089.316-.059.609-.147.877-.265v-1.336h-1.062v-6.341h-2.238zm-10.335 3.2v3.151c0 .205.018.407.056.606a1.243 1.243 0 00.713.929c.203.098.476.146.818.146.246 0 .524-.027.834-.08.31-.055.604-.14.882-.26V19.99h-1.074c0-1.077-.003-2.14-.008-3.191a556.33 556.33 0 01-.008-3.175h-2.127l-1.983 2.892a42.76 42.76 0 00-.504.736c-.154.231-.293.436-.415.614-.123.177-.221.323-.296.436a1.122 1.122 0 00-.112.186v-.017h-.064v-4.847h-3.271v1.422h1.042v6.48h2.139l2.22-3.12a42.244 42.244 0 001.077-1.583h.081zm-17.386.455L90.2 20.066l-1.053.162v1.135c.216.087.475.154.777.203.303.048.551.078.745.089.335 0 .605-.044.81-.13.205-.086.389-.243.55-.47l2.284-3.388v-.486l-2.138-3.097c-.172-.259-.359-.44-.558-.543-.2-.102-.45-.154-.753-.154-.249 0-.508.033-.778.098s-.496.146-.68.243l.114 1.183.906.065 1.75 2.302zm7.052 0l1.791-2.302.911-.065.096-1.183a2.866 2.866 0 00-.663-.243 3.155 3.155 0 00-.76-.098c-.299 0-.544.052-.736.154-.192.103-.378.284-.56.543l-2.175 3.097v.486l2.32 3.388c.16.227.34.384.543.47.203.087.475.13.816.13.096 0 .208-.008.336-.024.128-.017.258-.036.392-.057a3.57 3.57 0 00.759-.211v-1.135l-1.039-.162-2.031-2.788zm-5.586 4.14h3.96v-1.415h-.88V15.04h.864v-1.416h-3.976v1.415h.847v4.964h-.815v1.416zm-8.499-7.794v3.122h-3.075v-3.122h-3.252v1.416h1.014v6.47h2.238v-3.46h3.075v2.124c0 .515.118.89.354 1.127.237.236.645.354 1.224.354.247 0 .529-.03.845-.089a3.98 3.98 0 00.878-.265v-1.336H87.38v-6.341h-2.238zm-10.335 6.35c0 .205.019.407.056.606a1.246 1.246 0 00.713.929c.204.098.476.146.819.146.245 0 .523-.027.833-.08.31-.055.605-.14.883-.26V19.99h-1.075c0-1.077-.003-2.14-.008-3.191-.005-1.05-.008-2.109-.008-3.175h-2.126l-1.983 2.892c-.182.259-.35.504-.504.736-.155.231-.293.436-.416.614-.123.177-.221.323-.296.436a1.152 1.152 0 00-.111.186v-.017h-.064v-4.847h-3.272v1.422h1.042v6.48h2.14l2.22-3.12a44.497 44.497 0 001.077-1.583h.08v3.151zm95.719-2.164a18.623 18.623 0 00-.791-1.488c-.128-.234-.267-.488-.416-.764-.15-.276-.296-.539-.44-.788-.144-.25-.269-.473-.376-.669a23.5 23.5 0 00-.224-.406h-3.519v1.417h1.056v6.384h2.159v-4.713h.08l.12.24a27.681 27.681 0 00.44.844l.24.445.376.653c.133.233.258.456.376.668.117.213.221.398.312.557.09.16.146.266.167.319h1.248c.181-.382.379-.772.592-1.17.213-.398.411-.756.592-1.075.042-.085.096-.188.16-.31a22.63 22.63 0 00.376-.749c.058-.121.114-.23.168-.326h.064v2.993c.01.244.032.472.064.685.032.212.098.398.2.557.101.159.253.284.455.374.203.09.475.135.816.135.256 0 .533-.026.832-.08.298-.052.581-.137.848-.254v-1.306h-1.072v-4.871h.976v-1.417h-3.375a43.144 43.144 0 00-.584 1.083c-.134.254-.275.52-.424.796-.15.276-.283.53-.4.764-.085.159-.176.334-.272.525l-.272.541-.224.446a2.827 2.827 0 00-.112.239h-.063a5.318 5.318 0 01-.153-.279zm-8.247 13.816c0-.475-.107-.808-.322-1-.214-.19-.517-.286-.907-.286-.239 0-.483.026-.733.079-.25.053-.486.13-.708.23l.122.32c.429-.15.836-.226 1.221-.226.168 0 .311.017.428.05a.567.567 0 01.276.161.684.684 0 01.147.305c.029.127.045.286.045.475v.325l-1.059.057a2.55 2.55 0 00-.574.093 1.389 1.389 0 00-.456.222 1.026 1.026 0 00-.297.355 1.07 1.07 0 00-.106.484c0 .113.017.234.049.364a.989.989 0 00.517.646c.144.075.327.112.55.112.065 0 .142-.002.232-.007.089-.006.191-.023.305-.053.114-.03.24-.08.379-.15.138-.07.286-.169.443-.298l.017.008c.005.199.044.328.118.388.073.059.18.088.321.088.076 0 .171-.012.285-.035.114-.024.217-.057.309-.1l-.032-.26h-.57v-2.347zm-.431.78v1.08c-.207.19-.41.326-.611.41a1.513 1.513 0 01-.586.125c-.288 0-.495-.066-.623-.199-.127-.132-.191-.326-.191-.58 0-.227.074-.41.224-.548.149-.138.373-.215.671-.23l1.116-.057zm-3.151 1.926c.114-.024.217-.058.309-.1v-.267h-.602v-3.56h-.431v1.654h-2.093v-1.655h-.985v.355h.546v3.577h.431V32.43h2.101v1.461c0 .199.037.328.113.388a.523.523 0 00.326.088c.076 0 .171-.012.285-.036zm-4.583-2.706c0-.475-.108-.808-.322-1-.214-.19-.517-.286-.907-.286-.239 0-.483.026-.733.079-.25.053-.486.13-.708.23l.122.32a3.7 3.7 0 011.221-.226c.168 0 .31.017.427.05a.566.566 0 01.277.161.684.684 0 01.147.305c.029.127.045.286.045.475v.325l-1.059.057a2.54 2.54 0 00-.574.093 1.389 1.389 0 00-.456.222 1.015 1.015 0 00-.297.355 1.07 1.07 0 00-.106.484c0 .113.017.234.049.364a.989.989 0 00.517.646c.144.075.327.112.549.112.066 0 .143-.002.233-.007.089-.006.191-.023.305-.053.114-.03.24-.08.379-.15.138-.07.286-.169.443-.298l.017.008c.005.199.044.328.117.388.074.059.181.088.322.088.076 0 .171-.012.285-.035.114-.024.217-.057.309-.1l-.032-.26h-.57v-2.347zm-.431.78v1.08c-.207.19-.41.326-.611.41a1.513 1.513 0 01-.586.125c-.288 0-.495-.066-.623-.199-.128-.132-.191-.326-.191-.58 0-.227.074-.41.224-.548.149-.138.372-.215.671-.23l1.116-.057zm-4.095-1.194v2.68c.005.199.043.328.114.388.07.059.176.088.317.088.076 0 .17-.012.281-.036.111-.024.213-.058.305-.1v-.267h-.618v-3.206h.577v-.355h-1.017l-1.099 2.301-.407.88h-.008l-.424-.872-1.164-2.309h-1.083v.355h.611v3.577h.399v-3.173h.024l.384.783 1.053 2.051h.4l1.012-2.107.31-.678h.033zm-6.472 2.777h-.041l-.269-.896-.846-2.689h-.749v.372h.407l1.164 3.56h.22l-.261.795c-.076.219-.165.367-.268.445a.598.598 0 01-.367.116 2.01 2.01 0 01-.309-.028 9.594 9.594 0 01-.366-.069l-.082.337c.255.076.449.118.582.123a7.9 7.9 0 00.265.009c.239 0 .427-.06.566-.182.138-.12.253-.326.346-.616l1.497-4.49h.416v-.372h-1.376v.372h.537l-.773 2.335-.293.878zm-2.719-2.363c0-.475-.107-.808-.322-1-.214-.19-.517-.286-.908-.286-.238 0-.483.026-.732.079-.25.053-.486.13-.708.23l.122.32c.428-.15.835-.226 1.221-.226.168 0 .31.017.427.05a.566.566 0 01.277.161.684.684 0 01.147.305c.029.127.044.286.044.475v.325l-1.058.057a2.54 2.54 0 00-.574.093 1.389 1.389 0 00-.456.222 1.026 1.026 0 00-.297.355c-.071.14-.106.302-.106.484 0 .113.016.234.049.364a.989.989 0 00.517.646c.144.075.327.112.55.112.065 0 .142-.002.231-.007a1.64 1.64 0 00.306-.053c.114-.03.24-.08.378-.15.139-.07.287-.169.444-.298l.016.008c.006.199.045.328.118.388.074.059.181.088.322.088.076 0 .171-.012.285-.035.114-.024.217-.057.309-.1l-.032-.26h-.57v-2.347zm-.432.78v1.08c-.206.19-.41.326-.61.41a1.513 1.513 0 01-.586.125c-.288 0-.496-.066-.623-.199-.128-.132-.192-.326-.192-.58 0-.227.075-.41.224-.548.15-.138.374-.215.672-.23l1.115-.057zm-4.852-.888c.169 0 .331.02.489.057.157.038.296.102.415.194a.98.98 0 01.285.359c.071.148.106.332.106.553 0 .205-.031.386-.094.545a1.209 1.209 0 01-.252.404c-.106.11-.229.193-.371.25a1.215 1.215 0 01-.455.085h-1.482v-2.447h1.359zm-2.32-2.688v.371h.497v4.764h-.497v.37h2.455c.229 0 .442-.035.641-.108.198-.073.369-.179.514-.319.144-.14.258-.312.342-.517a1.84 1.84 0 00.127-.71 1.89 1.89 0 00-.086-.565 1.231 1.231 0 00-.29-.488 1.502 1.502 0 00-.53-.348 2.19 2.19 0 00-.816-.133h-1.396v-1.946h2.174v.719h.398v-1.09h-3.533zm-2.991 4.993a.34.34 0 00-.249-.1.34.34 0 00-.248.1.325.325 0 00-.102.239c0 .096.036.18.106.25.071.07.155.105.252.105a.325.325 0 00.241-.105.345.345 0 00.101-.25.324.324 0 00-.101-.239zm-1.755-2.208c0 .303-.031.598-.093.887-.063.29-.17.546-.322.77a1.708 1.708 0 01-.606.543c-.253.137-.569.206-.949.206-.076 0-.167-.004-.273-.012a5.838 5.838 0 01-.337-.036 4.343 4.343 0 01-.717-.162l-.105.352c.081.032.18.062.297.091a4.514 4.514 0 00.769.123c.135.01.266.015.391.015.428 0 .796-.072 1.103-.218a1.99 1.99 0 00.751-.601c.194-.255.335-.558.423-.908.088-.35.132-.73.132-1.139 0-.328-.027-.659-.081-.992a2.47 2.47 0 00-.321-.897 1.847 1.847 0 00-.674-.646c-.29-.166-.673-.25-1.149-.25-.309 0-.592.024-.849.073a3.827 3.827 0 00-.622.161v1.163h.399v-.864a4.231 4.231 0 01.804-.133 3.72 3.72 0 01.284-.012c.303 0 .564.05.783.153.22.102.4.246.54.432.141.186.245.41.313.67.067.261.104.553.109.876l-2.287-.049v.437l2.287-.033zm-4.18 2.208a.34.34 0 00-.248-.1.337.337 0 00-.248.1.338.338 0 00.004.488c.07.07.154.106.252.106a.325.325 0 00.24-.105.346.346 0 00.102-.25.325.325 0 00-.102-.239zm-1.282.513v-.371h-.513v-4.772h.513v-.371h-1.482v.371h.505v2.027H118.8v-2.027h.512v-.371h-1.481v.371h.505v4.772h-.505v.37h1.481v-.37h-.512v-2.342h2.808v2.342h-.505v.37h1.482zm-7.73-.513a.338.338 0 00-.248-.1.338.338 0 00-.248.1.338.338 0 00.004.488c.07.07.155.106.252.106a.325.325 0 00.24-.105.346.346 0 00.102-.25.325.325 0 00-.102-.239zm-2.275-2.611v2.68c.005.199.043.328.114.388.07.059.176.088.318.088.075 0 .169-.012.28-.036.112-.024.213-.058.306-.1v-.267h-.619v-3.206h.578v-.355h-1.018l-1.099 2.301-.407.88h-.008l-.423-.872-1.164-2.309h-1.083v.355h.611v3.577h.398v-3.173h.025l.384.783 1.052 2.051h.4l1.012-2.107.31-.678h.033zm-5.609-.105v2.785c.005.199.045.328.118.388.073.059.18.088.322.088.076 0 .171-.012.285-.036.114-.024.217-.058.309-.1v-.267h-.602v-3.56h-.424l-1.63 2.534-.413.654h-.033v-3.189h-1.025v.355h.594v3.577h.399l1.595-2.47.481-.76h.024zm-8.368-2.285h-1.441v.371h.44l1.473 3.835h.211l-.146.4c-.082.22-.173.367-.273.445a.576.576 0 01-.362.116 2.01 2.01 0 01-.31-.028 9.27 9.27 0 01-.366-.069l-.081.336c.255.077.449.118.582.124.133.006.22.008.264.008.239 0 .426-.062.562-.186.136-.123.258-.328.366-.613l1.604-4.368h.423v-.371h-1.416v.371h.545l-.732 2.002-.53 1.51h-.032l-.553-1.518-.758-1.994h.53v-.371zm-1.604 0h-3.973v1.17h.4v-.799h1.367v4.772h-.587v.37h1.653v-.37h-.602v-4.772H96.6v.8h.407l-.008-1.171zm-6.154 5.143h-.79V29.2h2.296v.719h.398v-1.09h-3.663v.371h.505v4.764h-.537v.37h1.79v-.37zm-5.492-.679l-.456-1.033-1.533-3.431h-1.027v.371h.497v4.772h-.497v.37h1.474v-.37h-.53l-.016-4.311h.017l.374.855 1.482 3.286h.448l1.44-3.221.4-.92h.016v4.31h-.521v.372h1.49v-.371h-.505v-4.772h.504v-.371h-1.026l-1.517 3.415-.465 1.05h-.049z" fill="#000"/><path d="M178.486 19.877c0-1.565.36-3.018 1.081-4.358a8.148 8.148 0 013.009-3.161 7.924 7.924 0 014.161-1.162c1.487 0 2.87.387 4.149 1.162a8.07 8.07 0 012.998 3.16 8.986 8.986 0 011.092 4.359 9.106 9.106 0 01-1.046 4.288 8.307 8.307 0 01-2.975 3.219 7.752 7.752 0 01-4.218 1.208 7.851 7.851 0 01-4.219-1.197 8.342 8.342 0 01-2.975-3.207 9.08 9.08 0 01-1.057-4.311zm1.336 0c0 1.332.31 2.568.93 3.707.62 1.13 1.46 2.018 2.522 2.661a6.6 6.6 0 003.463.964 6.566 6.566 0 003.475-.976 6.95 6.95 0 002.51-2.672c.612-1.124.918-2.352.918-3.684 0-1.325-.306-2.545-.918-3.661a6.78 6.78 0 00-2.51-2.65 6.566 6.566 0 00-3.475-.976 6.6 6.6 0 00-3.463.965c-1.069.635-1.914 1.518-2.534 2.65a7.596 7.596 0 00-.918 3.672zm5.207.871v3.928h-1.639V14.81h3.207c1.186 0 2.104.255 2.755.767.658.503.987 1.24.987 2.208 0 .953-.495 1.681-1.487 2.185.945.387 1.422 1.177 1.429 2.37v.71c0 .665.066 1.146.198 1.44v.186h-1.685c-.109-.279-.163-.775-.163-1.487 0-.72-.012-1.147-.035-1.279-.124-.743-.631-1.13-1.522-1.162h-2.045zm0-1.487h1.812c.558-.016 1.008-.151 1.348-.407.341-.256.512-.593.512-1.011 0-.566-.151-.965-.453-1.197-.303-.24-.841-.36-1.616-.36h-1.603v2.975z" fill="#000"/><path fill-rule="evenodd" clip-rule="evenodd" d="M54.425 9.844h-10.25l-3.166 3.173-3.166-3.173h-10.25l-7.249 7.264v10.274l7.248 7.264h10.251l3.165-3.172 3.166 3.172h10.25l7.249-7.264V17.108l-7.248-7.264z" fill="#F3E01E"/><path fill-rule="evenodd" clip-rule="evenodd" d="M31.826 24.665h1.896l1.341-1.35v-1.91l-1.34-1.351h-1.897l-1.342 1.35v1.91l1.341 1.35zm2.179 1.373h-2.462a.68.68 0 01-.482-.2l-1.741-1.754a.69.69 0 01-.2-.485V21.12c0-.182.072-.357.2-.485l1.74-1.753a.68.68 0 01.483-.201h2.462a.68.68 0 01.482.2l1.74 1.754c.128.128.2.303.2.485v2.479a.689.689 0 01-.2.485l-1.74 1.753a.679.679 0 01-.482.201zm14.277-1.373h1.897l1.34-1.35v-1.91l-1.34-1.351h-1.897l-1.341 1.35v1.91l1.341 1.35zm2.18 1.373h-2.463a.68.68 0 01-.482-.2l-1.74-1.754a.69.69 0 01-.2-.485V21.12c0-.182.072-.357.2-.485l1.74-1.753A.68.68 0 0148 18.68h2.462a.68.68 0 01.482.2l1.741 1.754c.128.128.2.303.2.485v2.479a.69.69 0 01-.2.485l-1.74 1.753a.68.68 0 01-.483.201zm-19.717 1.275h4.072l2.879-2.899v-4.1l-2.88-2.898h-4.07l-2.88 2.898v4.1l2.88 2.9zm4.354 1.373h-4.636a.68.68 0 01-.482-.2l-3.278-3.302a.69.69 0 01-.2-.485V20.03a.69.69 0 01.2-.486l3.278-3.3a.68.68 0 01.482-.202H35.1a.68.68 0 01.482.201l3.279 3.302a.69.69 0 01.2.485v4.67a.69.69 0 01-.2.485l-3.279 3.301a.68.68 0 01-.482.201zm12.103-1.373h4.071l2.88-2.899v-4.1l-2.88-2.898h-4.071l-2.88 2.898v4.1l2.88 2.9zm4.354 1.373H46.92a.68.68 0 01-.483-.2l-3.278-3.302a.69.69 0 01-.2-.485V20.03a.69.69 0 01.2-.486l3.278-3.3a.68.68 0 01.483-.202h4.636a.68.68 0 01.482.201l3.278 3.302a.69.69 0 01.2.485v4.67a.69.69 0 01-.2.485l-3.278 3.301a.679.679 0 01-.482.201zm-21.903 1.28h6.255l4.415-4.446v-6.313l-4.415-4.446h-6.255l-4.422 4.454v6.298l4.422 4.453zm16.457 0h6.254l4.423-4.453v-6.298l-4.423-4.454H46.11l-4.416 4.446v6.313l4.416 4.447zm6.537 1.374h-6.82a.68.68 0 01-.482-.201l-4.336-4.367-4.337 4.367a.68.68 0 01-.482.2h-6.82a.68.68 0 01-.481-.2l-4.823-4.856a.69.69 0 01-.2-.486V18.93a.69.69 0 01.2-.485l4.823-4.856a.68.68 0 01.482-.201h6.82a.68.68 0 01.481.201l4.337 4.367 4.336-4.367a.68.68 0 01.482-.201h6.82a.68.68 0 01.482.201l4.822 4.856c.128.128.2.303.2.485v6.867a.69.69 0 01-.2.486l-4.822 4.856a.68.68 0 01-.482.2zm7.852-20.078l-1.957 5.905-3.914-3.937 5.871-1.968zm-38.746 0l1.957 5.905 3.913-3.937-5.87-1.968z" fill="#000"/><path fill-rule="evenodd" clip-rule="evenodd" d="M41.243 28.269l3.758 3.78-3.758 3.779-3.757-3.78 3.757-3.78z" fill="#000"/></svg>