<svg width="213" height="38" viewBox="0 0 213 38" fill="none" xmlns="http://www.w3.org/2000/svg">
<path fill-rule="evenodd" clip-rule="evenodd" d="M172.925 17.5334H172.826L171.998 14.7617L170.44 9.65101H167.384V11.5774H168.389L170.934 19.0665H172.235C172.103 19.4595 171.982 19.8097 171.87 20.1179C171.758 20.4257 171.634 20.6844 171.495 20.8943C171.357 21.1039 171.19 21.2613 170.993 21.3661C170.795 21.4709 170.546 21.5231 170.243 21.5231C170.02 21.5231 169.783 21.5069 169.533 21.4743C169.284 21.4413 169.021 21.3987 168.744 21.3465C168.679 21.6478 168.623 21.9426 168.577 22.2312C168.53 22.5189 168.481 22.8139 168.429 23.1156C169.046 23.3121 169.553 23.4268 169.947 23.4595C170.342 23.4922 170.638 23.5086 170.835 23.5086C171.348 23.5086 171.775 23.4498 172.117 23.332C172.458 23.2138 172.748 23.0497 172.984 22.8404C173.221 22.6305 173.418 22.3783 173.576 22.0835C173.734 21.7887 173.872 21.4709 173.99 21.1303C174.582 19.5186 175.173 17.9066 175.765 16.2948C176.357 14.6828 176.942 13.0648 177.52 11.4397H178.467V9.65101H173.813V11.4397H174.917L173.793 14.8006C173.648 15.2599 173.503 15.7149 173.359 16.167C173.214 16.6192 173.07 17.0744 172.925 17.5334ZM162.406 13.5617V17.413C162.406 17.6633 162.429 17.9099 162.476 18.1536C162.522 18.3973 162.618 18.6179 162.764 18.815C162.91 19.0128 163.109 19.1706 163.362 19.289C163.614 19.4077 163.952 19.4668 164.378 19.4668C164.683 19.4668 165.028 19.434 165.413 19.3684C165.798 19.3024 166.164 19.1971 166.509 19.0522V17.4327H165.174C165.174 16.116 165.171 14.8159 165.164 13.532C165.158 12.2484 165.155 10.9546 165.155 9.65101H162.513L160.051 13.1864C159.825 13.5023 159.617 13.802 159.425 14.0851C159.233 14.3681 159.061 14.6181 158.908 14.8356C158.756 15.0527 158.634 15.2305 158.541 15.3686C158.448 15.5068 158.402 15.583 158.402 15.5958V15.5761H158.323V9.65101H154.26V11.3892H155.554V19.309H158.211L160.968 15.4971C161.3 15.0365 161.59 14.6253 161.836 14.2628C162.083 13.901 162.239 13.667 162.306 13.5617H162.406ZM147.028 17.2732C146.646 17.1582 146.335 17.0304 146.093 16.8896V12.4009C146.335 12.2221 146.656 12.0555 147.059 11.902C147.461 11.7487 147.836 11.6719 148.185 11.6719C148.467 11.6719 148.728 11.7074 148.969 11.7775C149.211 11.8479 149.422 11.9821 149.603 12.1802C149.784 12.3787 149.925 12.6536 150.026 13.0051C150.126 13.3571 150.176 13.8142 150.176 14.3768C150.176 15.0165 150.116 15.5343 149.995 15.9304C149.875 16.327 149.72 16.6371 149.533 16.8611C149.345 17.0848 149.13 17.2383 148.889 17.3212C148.648 17.4046 148.4 17.4459 148.145 17.4459C147.783 17.4459 147.411 17.3885 147.028 17.2732ZM142.01 23.2199H147.642V21.4024H146.174V18.7051C146.63 18.9268 147.106 19.0796 147.602 19.1643C148.098 19.249 148.514 19.2914 148.849 19.2914C149.626 19.2914 150.287 19.1609 150.83 18.9003C151.373 18.6399 151.812 18.2818 152.148 17.8257C152.483 17.3693 152.724 16.8223 152.872 16.1835C153.019 15.5453 153.093 14.8545 153.093 14.1118C153.093 13.4606 153.026 12.8483 152.892 12.2745C152.758 11.7015 152.536 11.1996 152.228 10.7695C151.92 10.3397 151.507 9.99772 150.991 9.74355C150.475 9.48939 149.835 9.3623 149.07 9.3623C148.856 9.3623 148.618 9.38518 148.356 9.43065C148.095 9.4764 147.826 9.54163 147.552 9.62607C147.277 9.71108 147.012 9.81867 146.757 9.94858C146.502 10.079 146.268 10.229 146.054 10.3982L146.013 10.379V9.51876H142.01V11.3363H143.378V21.4024H142.01V23.2199ZM137.032 13.5617V17.413C137.032 17.6633 137.055 17.9099 137.102 18.1536C137.149 18.3973 137.245 18.6179 137.391 18.815C137.537 19.0128 137.736 19.1706 137.989 19.289C138.24 19.4077 138.579 19.4668 139.004 19.4668C139.309 19.4668 139.655 19.434 140.04 19.3684C140.425 19.3024 140.79 19.1971 141.135 19.0522V17.4327H139.801C139.801 16.116 139.798 14.8159 139.791 13.532C139.784 12.2484 139.781 10.9546 139.781 9.65101H137.14L134.677 13.1864C134.452 13.5023 134.243 13.802 134.051 14.0851C133.859 14.3681 133.687 14.6181 133.535 14.8356C133.383 15.0527 133.261 15.2305 133.168 15.3686C133.075 15.5068 133.029 15.583 133.029 15.5958V15.5761H132.949V9.65101H128.886V11.3892H130.181V19.309H132.838L135.594 15.4971C135.927 15.0365 136.216 14.6253 136.463 14.2628C136.709 13.901 136.866 13.667 136.932 13.5617H137.032ZM123.912 9.65101V13.4669H120.092V9.65101H116.053V11.3819H117.313V19.2898H120.092V15.0606H123.912V17.6572C123.912 18.2865 124.058 18.7458 124.352 19.034C124.645 19.3224 125.151 19.4668 125.871 19.4668C126.178 19.4668 126.528 19.4304 126.921 19.3585C127.314 19.2866 127.678 19.1783 128.011 19.034V17.4014H126.691V9.65101H123.912ZM111.075 13.5617V17.413C111.075 17.6633 111.098 17.9099 111.145 18.1536C111.191 18.3973 111.287 18.6179 111.434 18.815C111.58 19.0128 111.779 19.1706 112.031 19.289C112.283 19.4077 112.622 19.4668 113.047 19.4668C113.353 19.4668 113.698 19.434 114.083 19.3684C114.468 19.3024 114.833 19.1971 115.178 19.0522V17.4327H113.844C113.844 16.116 113.84 14.8159 113.834 13.532C113.827 12.2484 113.824 10.9546 113.824 9.65101H111.183L108.72 13.1864C108.495 13.5023 108.286 13.802 108.094 14.0851C107.902 14.3681 107.73 14.6181 107.578 14.8356C107.426 15.0527 107.303 15.2305 107.211 15.3686C107.118 15.5068 107.071 15.583 107.071 15.5958V15.5761H106.992V9.65101H102.929V11.3892H104.224V19.309H106.88L109.637 15.4971C109.97 15.0365 110.259 14.6253 110.506 14.2628C110.752 13.901 110.909 13.667 110.975 13.5617H111.075ZM89.4828 14.1176L87.0291 17.525L85.7216 17.7231V19.1101C85.9895 19.216 86.3113 19.2982 86.687 19.3578C87.0622 19.4173 87.3709 19.4534 87.6121 19.4668C88.0277 19.4668 88.363 19.4139 88.6179 19.3082C88.8725 19.2026 89.1006 19.0111 89.3017 18.734L92.1379 14.5931V13.9985L89.4828 10.2142C89.2683 9.89706 89.0367 9.67606 88.7888 9.55038C88.5406 9.425 88.2291 9.3623 87.8536 9.3623C87.5449 9.3623 87.2232 9.40181 86.8881 9.48111C86.5528 9.5604 86.2711 9.65945 86.0433 9.77826L86.1842 11.2245L87.3104 11.3038L89.4828 14.1176ZM98.2401 14.1176L100.465 11.3038L101.597 11.2245L101.716 9.77826C101.491 9.65945 101.217 9.5604 100.892 9.48111C100.567 9.40181 100.253 9.3623 99.9485 9.3623C99.5776 9.3623 99.2731 9.425 99.0346 9.55038C98.7964 9.67606 98.5644 9.89706 98.3394 10.2142L95.6377 13.9985V14.5931L98.5182 18.734C98.7169 19.0111 98.9419 19.2026 99.1936 19.3082C99.445 19.4139 99.7828 19.4668 100.207 19.4668C100.326 19.4668 100.465 19.4568 100.624 19.4373C100.783 19.4173 100.945 19.3941 101.111 19.3678C101.276 19.3411 101.441 19.3051 101.607 19.259C101.772 19.2126 101.921 19.1634 102.054 19.1101V17.7231L100.763 17.525L98.2401 14.1176ZM91.3033 19.1781H96.221V17.4479H95.1283V11.3815H96.2008V9.65101H91.2629V11.3815H92.3153V17.4479H91.3033V19.1781ZM80.7475 9.65101V13.4669H76.9283V9.65101H72.8889V11.3819H74.1489V19.2898H76.9283V15.0606H80.7475V17.6572C80.7475 18.2865 80.894 18.7458 81.1872 19.034C81.4805 19.3224 81.9872 19.4668 82.7072 19.4668C83.0137 19.4668 83.3636 19.4304 83.7568 19.3585C84.1498 19.2866 84.5132 19.1783 84.8466 19.034V17.4014H83.5269V9.65101H80.7475ZM67.911 17.413C67.911 17.6633 67.934 17.9099 67.9807 18.1536C68.027 18.3973 68.1231 18.6179 68.2693 18.815C68.4155 19.0128 68.6147 19.1706 68.867 19.289C69.1191 19.4077 69.4576 19.4668 69.8829 19.4668C70.188 19.4668 70.533 19.434 70.9184 19.3684C71.3034 19.3024 71.6686 19.1971 72.014 19.0522V17.4327H70.6795C70.6795 16.116 70.6761 14.8159 70.6694 13.532C70.6628 12.2484 70.6597 10.9546 70.6597 9.65101H68.0184L65.5558 13.1864C65.3304 13.5023 65.1218 13.802 64.9298 14.0851C64.7379 14.3681 64.5658 14.6181 64.4135 14.8356C64.2613 15.0527 64.139 15.2305 64.0463 15.3686C63.9537 15.5068 63.9073 15.583 63.9073 15.5958V15.5761H63.8279V9.65101H59.7646V11.3892H61.0594V19.309H63.716L66.4729 15.4971C66.8056 15.0365 67.0949 14.6253 67.3415 14.2628C67.5878 13.901 67.7444 13.667 67.8112 13.5617H67.911V17.413Z" fill="black"/>
<path fill-rule="evenodd" clip-rule="evenodd" d="M186.796 14.7678C186.709 14.6059 186.61 14.4178 186.498 14.2036C186.385 13.9899 186.269 13.7726 186.15 13.5519C186.031 13.3315 185.918 13.1305 185.812 12.9489C185.653 12.6635 185.481 12.352 185.296 12.0147C185.11 11.6776 184.928 11.3565 184.749 11.0515C184.571 10.747 184.415 10.4746 184.282 10.2345C184.15 9.99468 184.057 9.82909 184.004 9.73828H179.633V11.4701H180.945V19.2725H183.627V13.5128H183.726C183.753 13.5651 183.802 13.6624 183.875 13.8047C183.948 13.9478 184.031 14.1066 184.123 14.2818C184.216 14.4566 184.315 14.6416 184.421 14.8359C184.527 15.0307 184.627 15.2123 184.719 15.381C184.865 15.6276 185.02 15.8935 185.186 16.1789C185.352 16.4639 185.507 16.7367 185.653 16.9959C185.799 17.2556 185.928 17.4825 186.041 17.6771C186.153 17.8713 186.223 18.0012 186.249 18.0662H187.799C188.024 17.5992 188.269 17.1224 188.534 16.636C188.799 16.1494 189.044 15.7119 189.269 15.3225C189.322 15.2191 189.388 15.0926 189.467 14.943C189.547 14.7943 189.626 14.6416 189.706 14.4859C189.785 14.3304 189.862 14.178 189.934 14.0284C190.007 13.8797 190.077 13.7465 190.143 13.6295H190.222V17.2877C190.236 17.5865 190.262 17.8651 190.302 18.1246C190.342 18.3841 190.424 18.611 190.55 18.8055C190.676 19.0001 190.865 19.1528 191.117 19.263C191.368 19.3729 191.706 19.428 192.13 19.428C192.448 19.428 192.792 19.3957 193.163 19.331C193.533 19.2661 193.885 19.1623 194.216 19.0195V17.424H192.885V11.4701H194.096V9.73828H189.905C189.852 9.82909 189.759 9.99468 189.626 10.2345C189.494 10.4746 189.345 10.7501 189.18 11.0616C189.014 11.3725 188.839 11.697 188.653 12.0343C188.467 12.3717 188.302 12.6829 188.156 12.9683C188.05 13.1628 187.938 13.3768 187.819 13.6104C187.699 13.8437 187.587 14.0644 187.481 14.2719C187.375 14.4797 187.282 14.661 187.203 14.8168C187.123 14.9725 187.077 15.0695 187.064 15.1086H186.984C186.945 15.0439 186.881 14.9303 186.796 14.7678Z" fill="black"/>
<path fill-rule="evenodd" clip-rule="evenodd" d="M176.552 31.6542C176.552 31.0738 176.419 30.6667 176.152 30.4326C175.886 30.1987 175.51 30.0818 175.025 30.0818C174.729 30.0818 174.425 30.1139 174.115 30.1785C173.805 30.2428 173.512 30.3364 173.236 30.459L173.387 30.8513C173.92 30.667 174.425 30.5748 174.904 30.5748C175.113 30.5748 175.289 30.595 175.435 30.6346C175.58 30.6744 175.694 30.7404 175.778 30.8328C175.863 30.9259 175.923 31.0499 175.96 31.2052C175.997 31.3609 176.016 31.5543 176.016 31.7859V32.183L174.702 32.2524C174.445 32.2658 174.208 32.3034 173.989 32.366C173.77 32.4285 173.581 32.5187 173.423 32.6374C173.264 32.7557 173.141 32.9005 173.054 33.0715C172.966 33.2425 172.922 33.4402 172.922 33.6635C172.922 33.8018 172.942 33.9497 172.983 34.1076C173.023 34.2655 173.095 34.4134 173.2 34.5517C173.305 34.6897 173.446 34.8049 173.625 34.897C173.803 34.9889 174.031 35.035 174.307 35.035C174.388 35.035 174.484 35.0316 174.596 35.0253C174.706 35.0185 174.833 34.9972 174.974 34.9611C175.116 34.9249 175.273 34.864 175.445 34.7787C175.617 34.6931 175.8 34.5713 175.996 34.4134L176.016 34.4234C176.023 34.6666 176.072 34.8248 176.163 34.897C176.253 34.9693 176.387 35.0054 176.562 35.0054C176.656 35.0054 176.774 34.9909 176.916 34.9619C177.057 34.9332 177.185 34.8928 177.3 34.841L177.259 34.5218H176.552V31.6542ZM176.016 32.6078V33.9264C175.76 34.1582 175.507 34.3252 175.258 34.4274C175.008 34.5301 174.766 34.581 174.53 34.581C174.172 34.581 173.915 34.5002 173.756 34.3383C173.598 34.1761 173.518 33.9397 173.518 33.6291C173.518 33.3514 173.611 33.1284 173.797 32.9594C173.982 32.7907 174.26 32.6965 174.631 32.6769L176.016 32.6078ZM172.103 34.9611C172.245 34.9315 172.373 34.8905 172.487 34.8379V34.5121H171.739V30.1606H171.203V32.1836H168.605V30.1606H167.381V30.5947H168.059V34.9659H168.595V32.6374H171.203V34.4234C171.203 34.6666 171.25 34.8248 171.345 34.897C171.439 34.9693 171.574 35.0054 171.749 35.0054C171.843 35.0054 171.962 34.9906 172.103 34.9611ZM166.411 31.6542C166.411 31.0738 166.277 30.6667 166.011 30.4326C165.745 30.1987 165.369 30.0818 164.884 30.0818C164.587 30.0818 164.284 30.1139 163.974 30.1785C163.664 30.2428 163.371 30.3364 163.094 30.459L163.246 30.8513C163.778 30.667 164.284 30.5748 164.763 30.5748C164.971 30.5748 165.148 30.595 165.293 30.6346C165.438 30.6744 165.553 30.7404 165.637 30.8328C165.721 30.9259 165.782 31.0499 165.819 31.2052C165.856 31.3609 165.875 31.5543 165.875 31.7859V32.183L164.56 32.2524C164.304 32.2658 164.067 32.3034 163.848 32.366C163.629 32.4285 163.439 32.5187 163.281 32.6374C163.123 32.7557 163 32.9005 162.912 33.0715C162.825 33.2425 162.781 33.4402 162.781 33.6635C162.781 33.8018 162.801 33.9497 162.841 34.1076C162.882 34.2655 162.954 34.4134 163.059 34.5517C163.163 34.6897 163.305 34.8049 163.483 34.897C163.662 34.9889 163.89 35.035 164.166 35.035C164.247 35.035 164.343 35.0316 164.454 35.0253C164.565 35.0185 164.692 34.9972 164.833 34.9611C164.975 34.9249 165.132 34.864 165.304 34.7787C165.475 34.6931 165.659 34.5713 165.854 34.4134L165.875 34.4234C165.881 34.6666 165.93 34.8248 166.021 34.897C166.112 34.9693 166.246 35.0054 166.421 35.0054C166.515 35.0054 166.633 34.9909 166.775 34.9619C166.916 34.9332 167.044 34.8928 167.159 34.841L167.118 34.5218H166.411V31.6542ZM165.875 32.6078V33.9264C165.619 34.1582 165.366 34.3252 165.117 34.4274C164.867 34.5301 164.624 34.581 164.388 34.581C164.031 34.581 163.774 34.5002 163.615 34.3383C163.457 34.1761 163.377 33.9397 163.377 33.6291C163.377 33.3514 163.47 33.1284 163.655 32.9594C163.841 32.7907 164.119 32.6965 164.49 32.6769L165.875 32.6078ZM160.789 31.1472V34.4234C160.796 34.6666 160.843 34.8248 160.931 34.897C161.018 34.9693 161.15 35.0054 161.325 35.0054C161.419 35.0054 161.536 34.9906 161.673 34.9611C161.812 34.9315 161.938 34.8905 162.053 34.8379V34.5121H161.285V30.5947H162.002V30.1606H160.738L159.373 32.9728L158.868 34.0481H158.858L158.332 32.9827L156.886 30.1606H155.541V30.5947H156.3V34.9659H156.795V31.088H156.826L157.302 32.045L158.61 34.5517H159.106L160.363 31.9762L160.749 31.1472H160.789ZM152.751 34.5417H152.7L152.367 33.4464L151.315 30.1606H150.385V30.6146H150.89L152.336 34.9659H152.61L152.286 35.9371C152.191 36.2051 152.08 36.3866 151.952 36.4816C151.824 36.5761 151.672 36.6236 151.497 36.6236C151.383 36.6236 151.255 36.6122 151.113 36.5892C150.972 36.5661 150.82 36.538 150.658 36.5053L150.557 36.9161C150.874 37.0102 151.115 37.0606 151.28 37.0674C151.445 37.0742 151.555 37.0776 151.608 37.0776C151.905 37.0776 152.139 37.0037 152.311 36.8557C152.483 36.7081 152.626 36.4569 152.741 36.1021L154.601 30.6146H155.117V30.1606H153.408V30.6146H154.076L153.115 33.4686L152.751 34.5417ZM149.374 31.6542C149.374 31.0738 149.241 30.6667 148.974 30.4326C148.708 30.1987 148.332 30.0818 147.847 30.0818C147.55 30.0818 147.247 30.1139 146.937 30.1785C146.627 30.2428 146.334 30.3364 146.058 30.459L146.209 30.8513C146.742 30.667 147.247 30.5748 147.726 30.5748C147.935 30.5748 148.111 30.595 148.257 30.6346C148.402 30.6744 148.516 30.7404 148.6 30.8328C148.685 30.9259 148.745 31.0499 148.783 31.2052C148.819 31.3609 148.838 31.5543 148.838 31.7859V32.183L147.524 32.2524C147.268 32.2658 147.03 32.3034 146.811 32.366C146.592 32.4285 146.403 32.5187 146.245 32.6374C146.086 32.7557 145.963 32.9005 145.876 33.0715C145.788 33.2425 145.744 33.4402 145.744 33.6635C145.744 33.8018 145.764 33.9497 145.805 34.1076C145.845 34.2655 145.918 34.4134 146.022 34.5517C146.126 34.6897 146.268 34.8049 146.447 34.897C146.625 34.9889 146.853 35.035 147.129 35.035C147.21 35.035 147.306 35.0316 147.417 35.0253C147.528 35.0185 147.655 34.9972 147.797 34.9611C147.938 34.9249 148.095 34.864 148.267 34.7787C148.439 34.6931 148.622 34.5713 148.818 34.4134L148.838 34.4234C148.845 34.6666 148.894 34.8248 148.985 34.897C149.076 34.9693 149.209 35.0054 149.384 35.0054C149.478 35.0054 149.596 34.9909 149.738 34.9619C149.879 34.9332 150.007 34.8928 150.122 34.841L150.082 34.5218H149.374V31.6542ZM148.838 32.6078V33.9264C148.582 34.1582 148.329 34.3252 148.08 34.4274C147.83 34.5301 147.588 34.581 147.352 34.581C146.994 34.581 146.736 34.5002 146.578 34.3383C146.42 34.1761 146.341 33.9397 146.341 33.6291C146.341 33.3514 146.433 33.1284 146.619 32.9594C146.804 32.7907 147.082 32.6965 147.453 32.6769L148.838 32.6078ZM142.812 31.5222C143.021 31.5222 143.223 31.5452 143.418 31.5913C143.614 31.6377 143.786 31.7165 143.934 31.828C144.083 31.9401 144.201 32.0866 144.288 32.2672C144.376 32.4482 144.42 32.6735 144.42 32.9432C144.42 33.1932 144.381 33.4154 144.303 33.6092C144.226 33.8035 144.122 33.9679 143.99 34.1028C143.858 34.2373 143.705 34.3394 143.53 34.4086C143.355 34.4774 143.166 34.5121 142.964 34.5121H141.123V31.5222H142.812ZM139.931 28.2363V28.6904H140.547V34.5121H139.931V34.9659H142.979C143.263 34.9659 143.528 34.9218 143.775 34.8327C144.021 34.744 144.234 34.614 144.413 34.443C144.592 34.272 144.734 34.0615 144.839 33.8114C144.944 33.5614 144.996 33.2723 144.996 32.9432C144.996 32.7062 144.96 32.4763 144.889 32.2524C144.818 32.0291 144.698 31.8297 144.53 31.6556C144.361 31.4812 144.141 31.3398 143.871 31.2311C143.6 31.1227 143.262 31.0684 142.857 31.0684H141.123V28.6904H143.823V29.5686H144.318V28.2363H139.931ZM136.215 34.3394C136.13 34.2572 136.028 34.216 135.906 34.216C135.785 34.216 135.682 34.2572 135.598 34.3394C135.514 34.4219 135.472 34.519 135.472 34.6305C135.472 34.7488 135.515 34.851 135.603 34.9363C135.69 35.0216 135.795 35.0646 135.916 35.0646C136.031 35.0646 136.13 35.0216 136.215 34.9363C136.299 34.851 136.341 34.7488 136.341 34.6305C136.341 34.519 136.299 34.4219 136.215 34.3394ZM134.036 31.6405C134.036 32.0103 133.997 32.3716 133.92 32.7247C133.842 33.078 133.709 33.3915 133.52 33.6655C133.332 33.9392 133.081 34.1605 132.767 34.3289C132.454 34.4971 132.061 34.581 131.589 34.581C131.494 34.581 131.382 34.5764 131.25 34.5662C131.119 34.5562 130.979 34.5417 130.831 34.5218C130.682 34.5022 130.532 34.476 130.381 34.443C130.229 34.4103 130.082 34.3707 129.941 34.3247L129.81 34.7551C129.911 34.7935 130.033 34.8305 130.179 34.866C130.323 34.9013 130.477 34.932 130.639 34.9576C130.8 34.9832 130.966 35.0029 131.134 35.016C131.302 35.0285 131.464 35.035 131.62 35.035C132.152 35.035 132.608 34.9463 132.989 34.7685C133.37 34.5909 133.681 34.346 133.922 34.0333C134.164 33.7213 134.339 33.3511 134.448 32.9235C134.558 32.496 134.612 32.032 134.612 31.5321C134.612 31.131 134.578 30.7262 134.511 30.3185C134.444 29.9105 134.311 29.5455 134.113 29.2232C133.914 28.9009 133.635 28.6377 133.275 28.4338C132.916 28.2301 132.44 28.1279 131.848 28.1279C131.465 28.1279 131.113 28.1575 130.794 28.2167C130.474 28.2759 130.217 28.3419 130.022 28.4141V29.8351H130.517V28.7791C130.591 28.7592 130.684 28.7382 130.795 28.7148C130.906 28.6921 131.021 28.6724 131.142 28.6557C131.263 28.6394 131.388 28.6264 131.515 28.6161C131.643 28.6064 131.761 28.6016 131.868 28.6016C132.245 28.6016 132.569 28.6639 132.841 28.7891C133.113 28.914 133.337 29.0898 133.511 29.3168C133.686 29.5438 133.816 29.8169 133.9 30.1358C133.984 30.455 134.029 30.8118 134.036 31.2067L131.195 31.1472V31.68L134.036 31.6405ZM128.844 34.3394C128.759 34.2572 128.657 34.216 128.536 34.216C128.414 34.216 128.311 34.2572 128.227 34.3394C128.143 34.4219 128.101 34.519 128.101 34.6305C128.101 34.7488 128.145 34.851 128.232 34.9363C128.32 35.0216 128.424 35.0646 128.546 35.0646C128.66 35.0646 128.759 35.0216 128.844 34.9363C128.928 34.851 128.97 34.7488 128.97 34.6305C128.97 34.519 128.928 34.4219 128.844 34.3394ZM127.252 34.9659V34.5121H126.615V28.6804H127.252V28.2264H125.411V28.6804H126.038V31.1572H122.55V28.6804H123.187V28.2264H121.347V28.6804H121.974V34.5121H121.347V34.9659H123.187V34.5121H122.55V31.6505H126.038V34.5121H125.411V34.9659H127.252ZM117.651 34.3394C117.567 34.2572 117.464 34.216 117.343 34.216C117.221 34.216 117.119 34.2572 117.035 34.3394C116.95 34.4219 116.908 34.519 116.908 34.6305C116.908 34.7488 116.952 34.851 117.04 34.9363C117.127 35.0216 117.232 35.0646 117.353 35.0646C117.467 35.0646 117.567 35.0216 117.651 34.9363C117.735 34.851 117.778 34.7488 117.778 34.6305C117.778 34.519 117.735 34.4219 117.651 34.3394ZM114.825 31.1472V34.4234C114.832 34.6666 114.879 34.8248 114.967 34.897C115.054 34.9693 115.186 35.0054 115.361 35.0054C115.455 35.0054 115.572 34.9906 115.71 34.9611C115.848 34.9315 115.974 34.8905 116.089 34.8379V34.5121H115.321V30.5947H116.039V30.1606H114.775L113.41 32.9728L112.904 34.0481H112.894L112.368 32.9827L110.922 30.1606H109.578V30.5947H110.336V34.9659H110.832V31.088H110.862L111.338 32.045L112.646 34.5517H113.143L114.4 31.9762L114.785 31.1472H114.825ZM107.859 31.0192V34.4234C107.865 34.6666 107.914 34.8248 108.006 34.897C108.097 34.9693 108.229 35.0054 108.405 35.0054C108.499 35.0054 108.617 34.9906 108.759 34.9611C108.9 34.9315 109.028 34.8905 109.143 34.8379V34.5121H108.395V30.1606H107.869L105.845 33.259L105.331 34.0581H105.291V30.1606H104.017V30.5947H104.755V34.9659H105.25L107.232 31.9466L107.829 31.0192H107.859ZM97.4651 28.2264H95.6755V28.6804H96.2215L98.0514 33.3676H98.3143L98.1324 33.8567C98.0313 34.1241 97.9181 34.3053 97.7937 34.4C97.6689 34.4948 97.5188 34.5417 97.3436 34.5417C97.229 34.5417 97.101 34.5303 96.9594 34.507C96.818 34.484 96.6661 34.4564 96.5046 34.4234L96.4035 34.8342C96.7203 34.9283 96.9611 34.9787 97.1264 34.9855C97.2914 34.9923 97.401 34.9955 97.4549 34.9955C97.7514 34.9955 97.984 34.9201 98.1525 34.7685C98.321 34.6174 98.4726 34.3673 98.6076 34.0188L100.599 28.6804H101.125V28.2264H99.3658V28.6804H100.043L99.1332 31.1276L98.4761 32.9728H98.4356L97.7482 31.1176L96.8078 28.6804H97.4651V28.2264ZM95.4732 28.2264H90.5391V29.6573H91.0347V28.6804H92.7333V34.5121H92.0051V34.9659H94.0577V34.5121H93.3096V28.6804H94.9777V29.6573H95.4834L95.4732 28.2264ZM87.8295 34.5121H86.8489V28.6904H89.7001V29.5686H90.1954V28.2363H85.6455V28.6904H86.2725V34.5121H85.6053V34.9659H87.8295V34.5121ZM81.0096 33.6831L80.4426 32.4203L78.5387 28.2264H77.2637V28.6804H77.8805V34.5121H77.2637V34.9659H79.0938V34.5121H78.4364L78.4163 29.2431H78.4364L78.9017 30.2886L80.742 34.305H81.2979L83.0875 30.368L83.5831 29.2431H83.6032V34.5121H82.956V34.9659H84.8062V34.5121H84.1795V28.6804H84.8062V28.2264H83.5312L81.6477 32.4004L81.0702 33.6831H81.0096Z" fill="black"/>
<path d="M196.428 14.2873C196.428 12.7223 196.788 11.2696 197.508 9.92935C198.237 8.58905 199.24 7.5354 200.518 6.76841C201.804 5.99367 203.191 5.6063 204.679 5.6063C206.166 5.6063 207.549 5.99367 208.827 6.76841C210.106 7.5354 211.105 8.58905 211.826 9.92935C212.554 11.2696 212.918 12.7223 212.918 14.2873C212.918 15.8135 212.569 17.2429 211.872 18.5754C211.175 19.908 210.183 20.981 208.897 21.7945C207.619 22.6002 206.213 23.0031 204.679 23.0031C203.152 23.0031 201.746 22.6041 200.46 21.8061C199.182 21.0004 198.19 19.9312 197.485 18.5987C196.78 17.2661 196.428 15.829 196.428 14.2873ZM197.764 14.2873C197.764 15.6198 198.074 16.8555 198.694 17.9944C199.314 19.1255 200.154 20.0126 201.216 20.6556C202.285 21.2986 203.439 21.6202 204.679 21.6202C205.926 21.6202 207.084 21.2948 208.153 20.644C209.223 19.9855 210.059 19.0945 210.664 17.9711C211.276 16.8478 211.582 15.6198 211.582 14.2873C211.582 12.9625 211.276 11.7422 210.664 10.6266C210.059 9.50324 209.223 8.62004 208.153 7.977C207.084 7.32622 205.926 7.00083 204.679 7.00083C203.439 7.00083 202.285 7.32235 201.216 7.96538C200.146 8.60067 199.302 9.48387 198.682 10.615C198.07 11.7461 197.764 12.9702 197.764 14.2873ZM202.97 15.1588V19.0868H201.332V9.22046H204.539C205.725 9.22046 206.643 9.47612 207.293 9.98745C207.952 10.491 208.281 11.227 208.281 12.1955C208.281 13.1484 207.785 13.8766 206.794 14.3802C207.739 14.7676 208.215 15.5578 208.223 16.7509V17.4598C208.223 18.1261 208.289 18.6064 208.421 18.9008V19.0868H206.736C206.627 18.8079 206.573 18.312 206.573 17.5993C206.573 16.8788 206.561 16.4527 206.538 16.3209C206.414 15.5772 205.907 15.1898 205.016 15.1588H202.97ZM202.97 13.6713H204.783C205.341 13.6558 205.79 13.5203 206.131 13.2646C206.472 13.0089 206.643 12.6719 206.643 12.2536C206.643 11.688 206.492 11.289 206.189 11.0566C205.887 10.8164 205.349 10.6963 204.574 10.6963H202.97V13.6713Z" fill="black"/>
<path fill-rule="evenodd" clip-rule="evenodd" d="M42.5959 5.03174H29.8645L25.9327 8.90921L22.0012 5.03174H9.26988L0.267578 13.9103V26.4664L9.26988 35.3453H22.0012L25.9327 31.4678L29.8645 35.3453H42.5959L51.5982 26.4664V13.9103L42.5959 5.03174Z" fill="#F3E01E"/>
<path fill-rule="evenodd" clip-rule="evenodd" d="M14.5275 23.1458H16.8832L18.5491 21.4953V19.161L16.8832 17.5102H14.5275L12.8616 19.161V21.4953L14.5275 23.1458ZM17.2342 24.8243H14.1768C13.9521 24.8243 13.7367 24.736 13.5778 24.5786L11.4157 22.4363C11.2571 22.2789 11.1677 22.0655 11.1677 21.8428V18.8132C11.1677 18.5905 11.2571 18.3771 11.4157 18.2199L13.5778 16.0777C13.7367 15.9202 13.9521 15.8317 14.1768 15.8317H17.2342C17.4589 15.8317 17.6739 15.9202 17.8328 16.0777L19.9947 18.2199C20.1536 18.3771 20.243 18.5905 20.243 18.8132V21.8428C20.243 22.0655 20.1536 22.2789 19.9947 22.4363L17.8328 24.5786C17.6739 24.736 17.4589 24.8243 17.2342 24.8243ZM34.9667 23.1458H37.3224L38.9877 21.4953V19.161L37.3224 17.5102H34.9667L33.3005 19.161V21.4953L34.9667 23.1458ZM37.6731 24.8243H34.6157C34.391 24.8243 34.1757 24.736 34.0168 24.5786L31.8549 22.4363C31.6963 22.2789 31.6069 22.0655 31.6069 21.8428V18.8132C31.6069 18.5905 31.6963 18.3771 31.8549 18.2199L34.0168 16.0777C34.1757 15.9202 34.391 15.8317 34.6157 15.8317H37.6731C37.8975 15.8317 38.1129 15.9202 38.2718 16.0777L40.4339 18.2199C40.5925 18.3771 40.6819 18.5905 40.6819 18.8132V21.8428C40.6819 22.0655 40.5925 22.2789 40.4339 22.4363L38.2718 24.5786C38.1129 24.736 37.8975 24.8243 37.6731 24.8243ZM13.1861 26.3828H18.2426L21.8184 22.8395V17.8286L18.2426 14.2856H13.1861L9.61065 17.8286V22.8395L13.1861 26.3828ZM18.5936 28.061H12.8354C12.6107 28.061 12.3953 27.9728 12.2364 27.8153L8.16476 23.7806C8.00585 23.6231 7.9165 23.4094 7.9165 23.187V17.481C7.9165 17.2587 8.00585 17.045 8.16476 16.8875L12.2364 12.8528C12.3953 12.6956 12.6107 12.6071 12.8354 12.6071H18.5936C18.818 12.6071 19.0334 12.6956 19.1923 12.8528L23.264 16.8875C23.4229 17.045 23.5122 17.2587 23.5122 17.481V23.187C23.5122 23.4094 23.4229 23.6231 23.264 23.7806L19.1923 27.8153C19.0334 27.9728 18.818 28.061 18.5936 28.061ZM33.625 26.3828H38.6819L42.2573 22.8395V17.8286L38.6819 14.2856H33.625L30.0493 17.8286V22.8395L33.625 26.3828ZM39.0329 28.061H33.2743C33.0496 28.061 32.8343 27.9728 32.6754 27.8153L28.604 23.7806C28.4451 23.6231 28.3557 23.4094 28.3557 23.187V17.481C28.3557 17.2587 28.4451 17.045 28.604 16.8875L32.6754 12.8528C32.8343 12.6956 33.0496 12.6071 33.2743 12.6071H39.0329C39.257 12.6071 39.4726 12.6956 39.6312 12.8528L43.7029 16.8875C43.8618 17.045 43.9511 17.2587 43.9511 17.481V23.187C43.9511 23.4094 43.8618 23.6231 43.7029 23.7806L39.6312 27.8153C39.4726 27.9728 39.257 28.061 39.0329 28.061ZM11.8293 29.6256H19.5977L25.0818 24.191V16.4754L19.5977 11.0413H11.8293L6.33644 16.4843V24.1823L11.8293 29.6256ZM32.2685 29.6256H40.0369L45.5301 24.1823V16.4843L40.0369 11.0413H32.2685L26.7847 16.4754V24.191L32.2685 29.6256ZM40.3876 31.3038H31.9178C31.6931 31.3038 31.4777 31.2155 31.3188 31.0581L25.9331 25.7212L20.5474 31.0581C20.3885 31.2155 20.1731 31.3038 19.9484 31.3038H11.4785C11.2542 31.3038 11.0385 31.2155 10.8799 31.0581L4.89054 25.1234C4.73193 24.9659 4.64258 24.7525 4.64258 24.5298V16.1368C4.64258 15.9142 4.73193 15.7007 4.89054 15.5436L10.8799 9.60855C11.0385 9.45138 11.2542 9.36255 11.4785 9.36255H19.9484C20.1731 9.36255 20.3885 9.45138 20.5474 9.60855L25.9331 14.9454L31.3188 9.60855C31.4777 9.45138 31.6931 9.36255 31.9178 9.36255H40.3876C40.612 9.36255 40.8277 9.45138 40.9863 9.60855L46.9757 15.5436C47.1343 15.7007 47.2236 15.9142 47.2236 16.1368V24.5298C47.2236 24.7525 47.1343 24.9659 46.9757 25.1234L40.9863 31.0581C40.8277 31.2155 40.612 31.3038 40.3876 31.3038Z" fill="black"/>
<path fill-rule="evenodd" clip-rule="evenodd" d="M50.1399 6.76416L47.7094 13.9817L42.8486 9.16971L50.1399 6.76416Z" fill="black"/>
<path fill-rule="evenodd" clip-rule="evenodd" d="M2.01709 6.76416L4.44751 13.9817L9.30836 9.16971L2.01709 6.76416Z" fill="black"/>
<path fill-rule="evenodd" clip-rule="evenodd" d="M26.2244 27.5505L30.8909 32.1699L26.2244 36.789L21.5581 32.1699L26.2244 27.5505Z" fill="black"/>
</svg>
