<svg width="272" height="55" fill="none" xmlns="http://www.w3.org/2000/svg"><path fill-rule="evenodd" clip-rule="evenodd" d="M197.93 24.53h-.1l-.83-2.77-1.56-5.1h-3.06v1.92h1l2.55 7.49h1.3l-.36 1.05c-.11.3-.24.56-.38.77-.13.21-.3.37-.5.48-.2.1-.44.15-.75.15a5.5 5.5 0 0 1-.7-.05 14.7 14.7 0 0 1-.8-.12c-.06.3-.12.6-.16.88l-.15.89a7.22 7.22 0 0 0 2.4.39c.52 0 .94-.06 1.29-.18a2.55 2.55 0 0 0 1.46-1.25c.15-.3.3-.6.41-.95.6-1.61 1.18-3.22 1.77-4.84.6-1.6 1.18-3.23 1.76-4.85h.95v-1.79h-4.66v1.79h1.1l-1.12 3.36-.43 1.37-.44 1.36Zm-10.52-3.97v3.85c0 .25.02.5.07.74.04.25.14.47.28.67.15.2.35.35.6.47s.6.18 1.02.18a6.23 6.23 0 0 0 2.13-.42v-1.62h-1.34a715.93 715.93 0 0 0-.01-7.78h-2.65l-2.46 3.54a43.65 43.65 0 0 0-1.14 1.65 36.33 36.33 0 0 0-.5.76v-.02h-.09v-5.93h-4.06v1.74h1.3v7.92h2.65l2.76-3.81a54.31 54.31 0 0 0 1.34-1.94h.1Zm-15.38 3.71a4.4 4.4 0 0 1-.94-.38V19.4a4.07 4.07 0 0 1 2.1-.73c.28 0 .54.04.78.1.24.08.45.21.63.41.18.2.33.47.43.83.1.35.15.8.15 1.37 0 .64-.06 1.15-.19 1.55-.12.4-.27.7-.46.93-.19.22-.4.38-.64.46-.24.08-.49.13-.74.13-.37 0-.74-.06-1.12-.18ZM167 30.22h5.63V28.4h-1.47v-2.7c.46.23.94.38 1.43.46.5.09.91.13 1.25.13.78 0 1.44-.13 1.98-.39s.98-.62 1.32-1.07c.33-.46.57-1 .72-1.65a9.22 9.22 0 0 0 .02-3.9 4.2 4.2 0 0 0-.66-1.51c-.31-.43-.72-.77-1.24-1.03a4.33 4.33 0 0 0-2.63-.3 6.61 6.61 0 0 0-1.6.5c-.26.14-.5.29-.7.46l-.05-.02v-.86h-4v1.82h1.37V28.4H167v1.82Zm-4.98-9.66v3.85c0 .25.03.5.07.74.05.25.15.47.3.67.14.2.34.35.59.47.25.12.59.18 1.01.18a6.24 6.24 0 0 0 2.13-.42v-1.62h-1.33a715.93 715.93 0 0 0-.02-7.78h-2.64l-2.46 3.54a47.95 47.95 0 0 0-1.15 1.65 36.33 36.33 0 0 0-.5.76v-.02h-.08v-5.93h-4.06v1.74h1.3v7.92h2.65l2.75-3.81a54.63 54.63 0 0 0 1.34-1.94h.1Zm-13.12-3.9v3.8h-3.82v-3.8h-4.04v1.72h1.26v7.91h2.78v-4.23h3.82v2.6c0 .63.15 1.09.44 1.37.3.3.8.44 1.52.44a5.91 5.91 0 0 0 2.14-.44V24.4h-1.32v-7.75h-2.78Zm-12.84 3.9v3.85c0 .25.03.5.08.74.04.25.14.47.28.67.15.2.35.35.6.47s.6.18 1.02.18a6.23 6.23 0 0 0 2.13-.42v-1.62h-1.34a833.6 833.6 0 0 0-.02-7.78h-2.64l-2.46 3.54a47.95 47.95 0 0 0-1.14 1.65 29.84 29.84 0 0 0-.5.76v-.02h-.09v-5.93h-4.06v1.74h1.3v7.92h2.65l2.76-3.81a54.63 54.63 0 0 0 1.34-1.94h.1Zm-21.59.56-2.45 3.4-1.3.2v1.39c.26.1.58.19.96.25.37.06.68.1.92.1.42 0 .75-.05 1-.15.26-.1.5-.3.7-.58l2.83-4.14V21l-2.66-3.78a1.92 1.92 0 0 0-.7-.66 2.06 2.06 0 0 0-.93-.19 4.2 4.2 0 0 0-1.8.42l.13 1.44 1.13.08 2.17 2.82Zm8.76 0 2.23-2.82 1.13-.08.12-1.44a3.97 3.97 0 0 0-1.77-.42c-.37 0-.68.07-.92.19a2.1 2.1 0 0 0-.7.66l-2.7 3.79v.6l2.89 4.13c.2.28.42.47.67.58.25.1.6.16 1.02.16l.41-.03a15.37 15.37 0 0 0 .99-.18l.44-.15v-1.39l-1.29-.2-2.52-3.4Zm-6.94 5.06h4.92v-1.73h-1.1v-6.07h1.08v-1.73h-4.94v1.73h1.05v6.07h-1v1.73Zm-10.55-9.53v3.82h-3.82v-3.82h-4.04v1.73h1.26v7.91h2.78v-4.23h3.82v2.6c0 .63.14 1.09.44 1.37.29.3.8.44 1.52.44a5.91 5.91 0 0 0 2.14-.44V24.4h-1.32v-7.75h-2.78ZM92.9 24.41c0 .25.02.5.07.74a1.54 1.54 0 0 0 .89 1.14c.25.12.59.18 1.01.18a6.24 6.24 0 0 0 2.13-.42v-1.62h-1.33a747.5 747.5 0 0 0-.02-7.78h-2.64l-2.46 3.54a46.13 46.13 0 0 0-1.15 1.65 32.98 32.98 0 0 0-.5.76v-.02h-.08v-5.93h-4.07v1.74h1.3v7.92h2.66l2.75-3.81a54.18 54.18 0 0 0 1.34-1.94h.1v3.85ZM211.8 21.77a58.22 58.22 0 0 1-.65-1.22l-.34-.6a162.38 162.38 0 0 1-1.06-1.9 41.36 41.36 0 0 1-.75-1.31h-4.37v1.73h1.31v7.8h2.69v-5.76h.1l.15.3a46.81 46.81 0 0 0 .54 1.03l.3.54a121.7 121.7 0 0 1 1.53 2.69h1.55a32.27 32.27 0 0 1 1.47-2.75 36.03 36.03 0 0 1 .44-.83 23.97 23.97 0 0 0 .43-.86h.08v3.66c.02.3.04.58.08.83.04.26.12.5.25.69.13.19.31.34.57.45.25.11.59.17 1.01.17a6.03 6.03 0 0 0 2.09-.41v-1.6h-1.34v-5.95h1.22v-1.73h-4.2a31.17 31.17 0 0 0-.72 1.32 81.4 81.4 0 0 1-1.02 1.9l-.34.65-.34.66-.28.55-.14.29h-.08l-.18-.34ZM201.55 38.65c0-.58-.13-.98-.4-1.22a1.65 1.65 0 0 0-1.13-.35 4.46 4.46 0 0 0-1.78.38l.15.4a4.64 4.64 0 0 1 1.51-.29c.21 0 .39.02.53.06.15.04.26.11.35.2.08.1.14.22.18.38.04.15.06.34.06.58v.4l-1.32.06c-.25.02-.5.05-.71.12-.22.06-.4.15-.57.27a1.23 1.23 0 0 0-.5 1.02c0 .14.02.29.06.45a1.23 1.23 0 0 0 .65.79c.17.09.4.13.68.13h.29a2.06 2.06 0 0 0 .84-.25c.18-.09.36-.2.56-.37l.02.01c0 .25.05.4.14.48.1.07.23.1.4.1.1 0 .21 0 .36-.04.14-.03.27-.07.38-.12l-.04-.32h-.7v-2.87Zm-.53.96v1.32c-.26.23-.51.4-.76.5-.25.1-.5.15-.73.15-.36 0-.62-.08-.77-.24-.16-.16-.24-.4-.24-.71 0-.28.1-.5.28-.67.18-.17.46-.26.83-.28l1.39-.07Zm-3.92 2.35c.15-.03.27-.07.39-.12v-.33h-.75v-4.35h-.54v2.02h-2.6v-2.02h-1.22v.43h.68v4.38h.53v-2.33h2.61v1.78c0 .25.05.4.15.48.09.07.22.1.4.1.1 0 .21 0 .35-.04Zm-5.69-3.3c0-.59-.13-1-.4-1.23a1.65 1.65 0 0 0-1.13-.35 4.45 4.45 0 0 0-1.79.38l.16.4a4.64 4.64 0 0 1 1.51-.29c.21 0 .39.02.53.06.15.04.26.11.35.2.08.1.14.22.18.38.04.15.06.34.06.58v.4l-1.32.06c-.26.02-.5.05-.71.12-.22.06-.41.15-.57.27-.16.12-.28.26-.37.43-.09.17-.13.37-.13.6 0 .13.02.28.06.44a1.25 1.25 0 0 0 .64.79c.18.09.41.13.69.13h.28a2.06 2.06 0 0 0 .85-.25c.17-.09.36-.2.55-.37l.03.01c0 .25.05.4.14.48.1.07.23.1.4.1.1 0 .21 0 .36-.04.14-.03.26-.07.38-.12l-.04-.32h-.7v-2.87Zm-.53.95v1.32c-.26.23-.51.4-.76.5-.25.1-.5.15-.73.15-.36 0-.62-.08-.77-.24-.16-.16-.24-.4-.24-.71 0-.28.09-.5.28-.67.18-.17.46-.26.83-.28l1.38-.07Zm-5.1-1.46v3.27c.02.25.06.4.15.48.09.07.22.1.4.1.09 0 .2 0 .34-.04.14-.03.27-.07.38-.12v-.33h-.77V37.6h.72v-.43h-1.26l-1.37 2.81-.5 1.08h-.01l-.53-1.07-1.44-2.82h-1.35v.43h.76v4.38h.5v-3.88h.03l.47.95 1.31 2.51h.5l1.25-2.57.39-.83h.04Zm-8.03 3.4h-.05l-.33-1.1-1.06-3.29h-.93v.45h.51l1.45 4.36h.27l-.32.97c-.1.27-.21.45-.34.54a.75.75 0 0 1-.45.14c-.12 0-.25 0-.39-.03l-.45-.08-.1.4a3.26 3.26 0 0 0 1.05.17c.3 0 .53-.08.7-.22.17-.15.32-.4.43-.76l1.86-5.49h.52v-.45h-1.71v.45h.67l-.97 2.86-.36 1.07Zm-3.38-2.9c0-.58-.13-.98-.4-1.22a1.65 1.65 0 0 0-1.12-.35 4.45 4.45 0 0 0-1.8.38l.16.4a4.64 4.64 0 0 1 1.52-.29c.2 0 .38.02.53.06.14.04.26.11.34.2.09.1.15.22.18.38.04.15.06.34.06.58v.4l-1.32.06c-.25.02-.49.05-.7.12-.23.06-.42.15-.57.27a1.23 1.23 0 0 0-.5 1.02c0 .14.01.29.06.45.03.16.1.3.21.44.1.14.25.25.43.35.18.09.4.13.68.13h.29a2.08 2.08 0 0 0 .85-.25c.17-.09.35-.2.55-.37l.02.01c0 .25.05.4.15.48.09.07.22.1.4.1.09 0 .2 0 .35-.04.14-.03.27-.07.38-.12l-.04-.32h-.7v-2.87Zm-.53.96v1.32c-.26.23-.51.4-.76.5-.25.1-.5.15-.73.15-.36 0-.61-.08-.77-.24-.16-.16-.24-.4-.24-.71 0-.28.1-.5.28-.67.18-.17.46-.26.83-.28l1.39-.07Zm-6.03-1.09c.21 0 .41.03.6.07.2.05.38.13.52.24.15.11.27.26.36.44.09.18.13.4.13.67 0 .25-.04.48-.12.67a1.32 1.32 0 0 1-.77.8c-.18.07-.36.1-.57.1h-1.84v-2.99h1.7Zm-2.88-3.28v.45h.62v5.82h-.62v.46h3.05c.28 0 .55-.05.8-.14a1.8 1.8 0 0 0 1.06-1.02c.1-.25.16-.54.16-.87 0-.23-.04-.46-.11-.69-.07-.22-.2-.42-.36-.6a1.88 1.88 0 0 0-.66-.42c-.27-.1-.6-.16-1.01-.16h-1.74v-2.38h2.7v.88h.5v-1.33h-4.39Zm-3.72 6.1a.43.43 0 0 0-.3-.12.42.42 0 0 0-.31.12.41.41 0 0 0 0 .6.43.43 0 0 0 .74-.31.4.4 0 0 0-.13-.3Zm-2.17-2.7c0 .37-.04.73-.12 1.08-.08.36-.21.67-.4.95-.19.27-.44.49-.75.66-.32.17-.7.25-1.18.25a4.45 4.45 0 0 1-.76-.06 5.41 5.41 0 0 1-.89-.2l-.13.44c.1.03.22.07.37.1a5.63 5.63 0 0 0 1.44.17c.53 0 .99-.08 1.37-.26.38-.18.7-.42.93-.74a3 3 0 0 0 .53-1.1c.1-.43.16-.9.16-1.4 0-.4-.03-.8-.1-1.21a3 3 0 0 0-.4-1.1c-.2-.32-.48-.58-.84-.79-.35-.2-.83-.3-1.42-.3a5.8 5.8 0 0 0-1.83.28v1.43h.5v-1.06a5.46 5.46 0 0 1 1.35-.18c.38 0 .7.06.97.19.27.12.5.3.67.53.18.22.3.5.39.82.08.31.13.67.14 1.07l-2.84-.06v.53l2.84-.04Zm-5.2 2.7a.43.43 0 0 0-.3-.12.42.42 0 0 0-.31.12.4.4 0 0 0-.13.29c0 .12.05.22.13.3.09.1.2.13.32.13a.4.4 0 0 0 .3-.12.42.42 0 0 0 .12-.3.4.4 0 0 0-.13-.3Zm-1.59.63v-.46h-.63v-5.83h.63v-.45h-1.84v.45h.63v2.48h-3.49v-2.48h.64v-.45h-1.84v.45h.62v5.83h-.62v.46h1.84v-.46h-.64v-2.86h3.49v2.86h-.63v.46h1.84Zm-9.6-.63a.42.42 0 0 0-.3-.12.42.42 0 0 0-.31.12.41.41 0 0 0 0 .6c.09.08.2.12.31.12a.4.4 0 0 0 .3-.12.42.42 0 0 0 .13-.3.4.4 0 0 0-.13-.3Zm-2.83-3.2v3.28c.01.25.06.4.15.48.08.07.22.1.4.1.09 0 .2 0 .34-.04.14-.03.26-.07.38-.12v-.33h-.77V37.6h.72v-.43h-1.26l-1.37 2.81-.5 1.08h-.02l-.52-1.07-1.45-2.82h-1.34v.43h.76v4.38h.5v-3.88h.02l.48.95 1.3 2.51h.5l1.26-2.57.38-.83h.04Zm-6.96-.12v3.4c0 .25.05.4.15.48.09.07.22.1.4.1.09 0 .2 0 .35-.04.14-.03.27-.07.38-.12v-.33h-.74v-4.35h-.53l-2.03 3.1-.5.8h-.05v-3.9h-1.27v.43h.73v4.38h.5l1.98-3.02.6-.93h.03Zm-10.4-2.8h-1.78v.46h.54l1.83 4.69h.26l-.18.49c-.1.26-.21.45-.34.54a.72.72 0 0 1-.45.14 11.42 11.42 0 0 1-.84-.12l-.1.41a3.26 3.26 0 0 0 1.05.17 1 1 0 0 0 .7-.23c.17-.15.32-.4.46-.75l1.99-5.34h.53v-.45h-1.76v.45h.67l-.9 2.45-.66 1.84h-.04l-.7-1.85-.93-2.44h.66v-.45Zm-1.99 0h-4.93v1.44h.5v-.98h1.7v5.83H117v.46h2.05v-.46h-.75v-5.83h1.67v.98h.5v-1.43Zm-7.64 6.3h-.98v-5.83h2.85v.88h.5v-1.33h-4.55v.45h.62v5.82h-.66v.46h2.22v-.46Zm-6.82-.84-.57-1.26-1.9-4.2h-1.28v.46h.62v5.83h-.62v.46h1.83v-.46h-.65l-.02-5.27h.02l.46 1.05 1.84 4.02h.56l1.79-3.94.5-1.13h.01v5.27h-.64v.46h1.85v-.46h-.63v-5.83h.63v-.45h-1.28l-1.88 4.17-.58 1.28h-.06Z" fill="black"/><path d="M221.43 21.29c0-1.57.36-3.02 1.08-4.36a8.16 8.16 0 0 1 7.17-4.32 8.07 8.07 0 0 1 7.15 4.32 8.99 8.99 0 0 1 1.09 4.36c0 1.52-.35 2.95-1.05 4.29a8.3 8.3 0 0 1-2.97 3.21 7.75 7.75 0 0 1-4.22 1.21c-1.53 0-2.93-.4-4.22-1.2a8.34 8.34 0 0 1-2.97-3.2 9.08 9.08 0 0 1-1.06-4.31Zm1.33 0c0 1.33.31 2.57.93 3.7a6.95 6.95 0 0 0 2.53 2.67 6.6 6.6 0 0 0 6.93-.02 6.94 6.94 0 0 0 2.51-2.67c.62-1.12.92-2.35.92-3.68s-.3-2.55-.92-3.66a6.77 6.77 0 0 0-11.98-.02 7.6 7.6 0 0 0-.92 3.68Zm5.21.87v3.93h-1.64v-9.87h3.2c1.2 0 2.11.26 2.76.77.66.5 1 1.24 1 2.2 0 .96-.5 1.69-1.5 2.19.95.39 1.43 1.18 1.43 2.37v.71c0 .67.07 1.15.2 1.44v.19h-1.68c-.11-.28-.17-.78-.17-1.5 0-.71 0-1.14-.03-1.27-.13-.74-.63-1.13-1.52-1.16h-2.05Zm0-1.49h1.81c.56-.01 1.01-.15 1.35-.4.34-.26.51-.6.51-1.02 0-.56-.15-.96-.45-1.2-.3-.23-.84-.35-1.62-.35h-1.6v2.97Z" fill="black"/><path fill-rule="evenodd" clip-rule="evenodd" d="M67.6 12.03H54.86l-3.93 3.88L47 12.03H34.27l-9 8.88v12.56l9 8.88H47l3.93-3.88 3.93 3.88H67.6l9-8.88V20.9l-9-8.88Z" fill="#F3E01E"/><path fill-rule="evenodd" clip-rule="evenodd" d="M39.53 30.15h2.35l1.67-1.65v-2.34l-1.67-1.65h-2.35l-1.67 1.65v2.34l1.67 1.65Zm2.7 1.67h-3.05a.85.85 0 0 1-.6-.24l-2.16-2.14a.84.84 0 0 1-.25-.6v-3.03c0-.22.09-.43.25-.59l2.16-2.14a.85.85 0 0 1 .6-.25h3.05c.23 0 .44.09.6.25L45 25.22c.16.16.25.37.25.6v3.02c0 .23-.09.44-.25.6l-2.16 2.14a.85.85 0 0 1-.6.24Zm17.74-1.67h2.35L64 28.5v-2.34l-1.67-1.65h-2.35l-1.67 1.65v2.34l1.67 1.65Zm2.7 1.67h-3.05a.85.85 0 0 1-.6-.24l-2.17-2.14a.84.84 0 0 1-.24-.6v-3.03c0-.22.09-.43.24-.59l2.17-2.14a.85.85 0 0 1 .6-.25h3.05c.23 0 .44.09.6.25l2.16 2.14c.16.16.25.37.25.6v3.02c0 .23-.09.44-.25.6l-2.16 2.14a.85.85 0 0 1-.6.24ZM38.2 33.38h5.05l3.58-3.54v-5.01l-3.58-3.54H38.2l-3.58 3.54v5.01l3.58 3.54Zm5.4 1.68h-5.75a.85.85 0 0 1-.6-.24l-4.08-4.04a.84.84 0 0 1-.24-.6v-5.7c0-.22.09-.43.24-.6l4.08-4.03a.85.85 0 0 1 .6-.24h5.75c.23 0 .44.09.6.24l4.07 4.04c.16.16.25.37.25.6v5.7c0 .22-.09.43-.25.6l-4.07 4.03a.85.85 0 0 1-.6.24Zm15.03-1.68h5.06l3.58-3.54v-5.01l-3.58-3.54h-5.05l-3.58 3.54v5.01l3.58 3.54Zm5.41 1.68h-5.76a.85.85 0 0 1-.6-.24l-4.07-4.04a.84.84 0 0 1-.24-.6v-5.7c0-.22.09-.43.24-.6l4.08-4.03a.85.85 0 0 1 .6-.24h5.75c.23 0 .44.09.6.24l4.07 4.04c.16.16.25.37.25.6v5.7c0 .22-.09.43-.25.6l-4.07 4.03a.85.85 0 0 1-.6.24Zm-27.2 1.57h7.77l5.48-5.44v-7.71l-5.48-5.44h-7.77l-5.5 5.44v7.7l5.5 5.45Zm20.44 0h7.77l5.49-5.45v-7.7l-5.5-5.44h-7.76l-5.49 5.44v7.71l5.49 5.44Zm8.12 1.67h-8.47a.85.85 0 0 1-.6-.24l-5.39-5.34-5.38 5.34a.85.85 0 0 1-.6.24h-8.47a.85.85 0 0 1-.6-.24l-5.99-5.94a.84.84 0 0 1-.25-.59v-8.4c0-.22.1-.43.25-.59l5.99-5.93a.85.85 0 0 1 .6-.25h8.47c.22 0 .44.1.6.25l5.38 5.34 5.39-5.34a.85.85 0 0 1 .6-.25h8.47c.22 0 .44.1.6.25l5.99 5.93c.15.16.24.37.24.6v8.39c0 .22-.09.44-.24.6l-6 5.93a.85.85 0 0 1-.6.24ZM75.14 13.76l-2.43 7.22-4.86-4.81 7.29-2.4ZM27.02 13.76l2.43 7.22 4.86-4.81-7.3-2.4Z" fill="black"/><path fill-rule="evenodd" clip-rule="evenodd" d="m51.22 34.55 4.67 4.62-4.67 4.62-4.66-4.62 4.66-4.62Z" fill="black"/></svg>