<svg width="30" height="31" fill="none" xmlns="http://www.w3.org/2000/svg"><circle cx="15" cy="15.572" r="15" fill="#000"/><path d="M21.396 12.374a1.67 1.67 0 00-1.175-1.177c-1.044-.287-5.22-.291-5.22-.291s-4.177-.005-5.221.269a1.706 1.706 0 00-1.178 1.185c-.275 1.044-.278 3.21-.278 3.21s-.002 2.175.27 3.209a1.67 1.67 0 001.176 1.177c1.055.286 5.22.29 5.22.29s4.177.006 5.22-.268a1.677 1.677 0 001.179-1.175c.276-1.044.278-3.208.278-3.208s.013-2.177-.271-3.22zm-7.732 5.202l.004-4 3.47 2.003-3.474 1.997z" fill="#fff"/></svg>