<svg width="30" height="31" fill="none" xmlns="http://www.w3.org/2000/svg"><circle cx="15" cy="15.572" r="15" fill="#000"/><path fill-rule="evenodd" clip-rule="evenodd" d="M13.038 14.956l.16-1.527c0-.478-.2-.643-.313-.79-.16-.204-.248-.405-.248-.652v-.02a.867.867 0 01.925-.832l2.081.017c.321 0 .52.091.657.209.174.148.31.403.31.895l.13 2.105c.755-.751 1.26-1.562 1.672-2.421a1.15 1.15 0 011.147-.73l1.315.004c.376 0 .626.146.782.337.155.192.245.465.17.835-.06.278-.27.732-.552 1.224-.52.911-1.273 1.99-1.42 2.199.19.219.63.618.916.997.569.603.99 1.146 1.198 1.555.135.267.192.501.192.692-.003.366-.143.587-.302.73a.933.933 0 01-.632.23l-1.618.067c-.387 0-.64-.108-.917-.352-.238-.211-.509-.59-1.129-1.182-.333-.33-.62-.582-.774-.684l-.209 1.142c0 .254-.063.456-.178.623-.111.16-.275.297-.537.387-.212.072-.32-.001-.786-.001-1.623 0-3.44-.969-4.809-2.817-1.972-2.66-2.43-4.667-2.43-5.096v-.01c0-.525.433-.957.958-.957h1.522c.365 0 .28.005.472.155.177.138.326.348.442.697.39 1.142 1.287 2.284 1.788 2.95l.017.02z" fill="#fff"/></svg>